<svg id="visual" viewBox="0 0 1920 300" width="1920" height="300" xmlns="http://www.w3.org/2000/svg" xmlns:xlink="http://www.w3.org/1999/xlink" version="1.1"><rect x="0" y="0" width="1920" height="300" fill="#0d8136"></rect><path d="M0 148L16 147.5C32 147 64 146 96 150.2C128 154.3 160 163.7 192 165.8C224 168 256 163 288 160.3C320 157.7 352 157.3 384 155.5C416 153.7 448 150.3 480 151.5C512 152.7 544 158.3 576 158.2C608 158 640 152 672 149C704 146 736 146 768 145.3C800 144.7 832 143.3 864 146.2C896 149 928 156 960 155.3C992 154.7 1024 146.3 1056 148C1088 149.7 1120 161.3 1152 163.3C1184 165.3 1216 157.7 1248 157.2C1280 156.7 1312 163.3 1344 164.7C1376 166 1408 162 1440 161.8C1472 161.7 1504 165.3 1536 163.3C1568 161.3 1600 153.7 1632 149.8C1664 146 1696 146 1728 147.8C1760 149.7 1792 153.3 1824 157.8C1856 162.3 1888 167.7 1904 170.3L1920 173L1920 0L1904 0C1888 0 1856 0 1824 0C1792 0 1760 0 1728 0C1696 0 1664 0 1632 0C1600 0 1568 0 1536 0C1504 0 1472 0 1440 0C1408 0 1376 0 1344 0C1312 0 1280 0 1248 0C1216 0 1184 0 1152 0C1120 0 1088 0 1056 0C1024 0 992 0 960 0C928 0 896 0 864 0C832 0 800 0 768 0C736 0 704 0 672 0C640 0 608 0 576 0C544 0 512 0 480 0C448 0 416 0 384 0C352 0 320 0 288 0C256 0 224 0 192 0C160 0 128 0 96 0C64 0 32 0 16 0L0 0Z" fill="#d6d6ff"></path><path d="M0 140L16 141.7C32 143.3 64 146.7 96 145.2C128 143.7 160 137.3 192 135.7C224 134 256 137 288 136.3C320 135.7 352 131.3 384 128.7C416 126 448 125 480 128C512 131 544 138 576 141.3C608 144.7 640 144.3 672 143.7C704 143 736 142 768 137.3C800 132.7 832 124.3 864 125.5C896 126.7 928 137.3 960 139.3C992 141.3 1024 134.7 1056 134.7C1088 134.7 1120 141.3 1152 145.2C1184 149 1216 150 1248 145.2C1280 140.3 1312 129.7 1344 129.8C1376 130 1408 141 1440 143.2C1472 145.3 1504 138.7 1536 136.5C1568 134.3 1600 136.7 1632 139.2C1664 141.7 1696 144.3 1728 145.5C1760 146.7 1792 146.3 1824 145.8C1856 145.3 1888 144.7 1904 144.3L1920 144L1920 0L1904 0C1888 0 1856 0 1824 0C1792 0 1760 0 1728 0C1696 0 1664 0 1632 0C1600 0 1568 0 1536 0C1504 0 1472 0 1440 0C1408 0 1376 0 1344 0C1312 0 1280 0 1248 0C1216 0 1184 0 1152 0C1120 0 1088 0 1056 0C1024 0 992 0 960 0C928 0 896 0 864 0C832 0 800 0 768 0C736 0 704 0 672 0C640 0 608 0 576 0C544 0 512 0 480 0C448 0 416 0 384 0C352 0 320 0 288 0C256 0 224 0 192 0C160 0 128 0 96 0C64 0 32 0 16 0L0 0Z" fill="#e1e1ff"></path><path d="M0 104L16 108.5C32 113 64 122 96 123.2C128 124.3 160 117.7 192 113.5C224 109.3 256 107.7 288 107.7C320 107.7 352 109.3 384 112.8C416 116.3 448 121.7 480 124C512 126.3 544 125.7 576 123C608 120.3 640 115.7 672 116.5C704 117.3 736 123.7 768 122.3C800 121 832 112 864 107.5C896 103 928 103 960 104.3C992 105.7 1024 108.3 1056 110.5C1088 112.7 1120 114.3 1152 114C1184 113.7 1216 111.3 1248 112C1280 112.7 1312 116.3 1344 114.5C1376 112.7 1408 105.3 1440 101C1472 96.7 1504 95.3 1536 95.5C1568 95.7 1600 97.3 1632 100.7C1664 104 1696 109 1728 107.8C1760 106.7 1792 99.3 1824 102.2C1856 105 1888 118 1904 124.5L1920 131L1920 0L1904 0C1888 0 1856 0 1824 0C1792 0 1760 0 1728 0C1696 0 1664 0 1632 0C1600 0 1568 0 1536 0C1504 0 1472 0 1440 0C1408 0 1376 0 1344 0C1312 0 1280 0 1248 0C1216 0 1184 0 1152 0C1120 0 1088 0 1056 0C1024 0 992 0 960 0C928 0 896 0 864 0C832 0 800 0 768 0C736 0 704 0 672 0C640 0 608 0 576 0C544 0 512 0 480 0C448 0 416 0 384 0C352 0 320 0 288 0C256 0 224 0 192 0C160 0 128 0 96 0C64 0 32 0 16 0L0 0Z" fill="#ededff"></path><path d="M0 101L16 99.2C32 97.3 64 93.7 96 88.7C128 83.7 160 77.3 192 74.5C224 71.7 256 72.3 288 74.5C320 76.7 352 80.3 384 81C416 81.7 448 79.3 480 80.5C512 81.7 544 86.3 576 85C608 83.7 640 76.3 672 74.2C704 72 736 75 768 78.8C800 82.7 832 87.3 864 86.5C896 85.7 928 79.3 960 81.5C992 83.7 1024 94.3 1056 96.5C1088 98.7 1120 92.3 1152 90.8C1184 89.3 1216 92.7 1248 91.7C1280 90.7 1312 85.3 1344 84.5C1376 83.7 1408 87.3 1440 89.8C1472 92.3 1504 93.7 1536 90.8C1568 88 1600 81 1632 79.2C1664 77.3 1696 80.7 1728 81C1760 81.3 1792 78.7 1824 81.7C1856 84.7 1888 93.3 1904 97.7L1920 102L1920 0L1904 0C1888 0 1856 0 1824 0C1792 0 1760 0 1728 0C1696 0 1664 0 1632 0C1600 0 1568 0 1536 0C1504 0 1472 0 1440 0C1408 0 1376 0 1344 0C1312 0 1280 0 1248 0C1216 0 1184 0 1152 0C1120 0 1088 0 1056 0C1024 0 992 0 960 0C928 0 896 0 864 0C832 0 800 0 768 0C736 0 704 0 672 0C640 0 608 0 576 0C544 0 512 0 480 0C448 0 416 0 384 0C352 0 320 0 288 0C256 0 224 0 192 0C160 0 128 0 96 0C64 0 32 0 16 0L0 0Z" fill="#f8f8ff"></path><path d="M0 73L16 74.3C32 75.7 64 78.3 96 76.3C128 74.3 160 67.7 192 63.3C224 59 256 57 288 56.5C320 56 352 57 384 58.2C416 59.3 448 60.7 480 63.3C512 66 544 70 576 73.7C608 77.3 640 80.7 672 76.2C704 71.7 736 59.3 768 57.5C800 55.7 832 64.3 864 69.7C896 75 928 77 960 78C992 79 1024 79 1056 80C1088 81 1120 83 1152 78C1184 73 1216 61 1248 59.3C1280 57.7 1312 66.3 1344 70.8C1376 75.3 1408 75.7 1440 75.2C1472 74.7 1504 73.3 1536 70.5C1568 67.7 1600 63.3 1632 60.8C1664 58.3 1696 57.7 1728 62C1760 66.3 1792 75.7 1824 78.8C1856 82 1888 79 1904 77.5L1920 76L1920 0L1904 0C1888 0 1856 0 1824 0C1792 0 1760 0 1728 0C1696 0 1664 0 1632 0C1600 0 1568 0 1536 0C1504 0 1472 0 1440 0C1408 0 1376 0 1344 0C1312 0 1280 0 1248 0C1216 0 1184 0 1152 0C1120 0 1088 0 1056 0C1024 0 992 0 960 0C928 0 896 0 864 0C832 0 800 0 768 0C736 0 704 0 672 0C640 0 608 0 576 0C544 0 512 0 480 0C448 0 416 0 384 0C352 0 320 0 288 0C256 0 224 0 192 0C160 0 128 0 96 0C64 0 32 0 16 0L0 0Z" fill="#f9f9ff"></path><path d="M0 42L16 44C32 46 64 50 96 53.3C128 56.7 160 59.3 192 59.3C224 59.3 256 56.7 288 54C320 51.3 352 48.7 384 49.8C416 51 448 56 480 57C512 58 544 55 576 51.8C608 48.7 640 45.3 672 42C704 38.7 736 35.3 768 35.7C800 36 832 40 864 44C896 48 928 52 960 49.2C992 46.3 1024 36.7 1056 34.2C1088 31.7 1120 36.3 1152 37.3C1184 38.3 1216 35.7 1248 34.8C1280 34 1312 35 1344 38.5C1376 42 1408 48 1440 48.8C1472 49.7 1504 45.3 1536 45C1568 44.7 1600 48.3 1632 46.5C1664 44.7 1696 37.3 1728 35C1760 32.7 1792 35.3 1824 39.2C1856 43 1888 48 1904 50.5L1920 53L1920 0L1904 0C1888 0 1856 0 1824 0C1792 0 1760 0 1728 0C1696 0 1664 0 1632 0C1600 0 1568 0 1536 0C1504 0 1472 0 1440 0C1408 0 1376 0 1344 0C1312 0 1280 0 1248 0C1216 0 1184 0 1152 0C1120 0 1088 0 1056 0C1024 0 992 0 960 0C928 0 896 0 864 0C832 0 800 0 768 0C736 0 704 0 672 0C640 0 608 0 576 0C544 0 512 0 480 0C448 0 416 0 384 0C352 0 320 0 288 0C256 0 224 0 192 0C160 0 128 0 96 0C64 0 32 0 16 0L0 0Z" fill="#f9f9ff"></path><path d="M0 8L16 12.5C32 17 64 26 96 25.2C128 24.3 160 13.7 192 12.5C224 11.3 256 19.7 288 25.3C320 31 352 34 384 31.5C416 29 448 21 480 17C512 13 544 13 576 14.7C608 16.3 640 19.7 672 21.2C704 22.7 736 22.3 768 19.5C800 16.7 832 11.3 864 9C896 6.7 928 7.3 960 6.7C992 6 1024 4 1056 4.5C1088 5 1120 8 1152 14.3C1184 20.7 1216 30.3 1248 29.2C1280 28 1312 16 1344 15.2C1376 14.3 1408 24.7 1440 28.8C1472 33 1504 31 1536 31C1568 31 1600 33 1632 33.2C1664 33.3 1696 31.7 1728 28.5C1760 25.3 1792 20.7 1824 17.7C1856 14.7 1888 13.3 1904 12.7L1920 12L1920 0L1904 0C1888 0 1856 0 1824 0C1792 0 1760 0 1728 0C1696 0 1664 0 1632 0C1600 0 1568 0 1536 0C1504 0 1472 0 1440 0C1408 0 1376 0 1344 0C1312 0 1280 0 1248 0C1216 0 1184 0 1152 0C1120 0 1088 0 1056 0C1024 0 992 0 960 0C928 0 896 0 864 0C832 0 800 0 768 0C736 0 704 0 672 0C640 0 608 0 576 0C544 0 512 0 480 0C448 0 416 0 384 0C352 0 320 0 288 0C256 0 224 0 192 0C160 0 128 0 96 0C64 0 32 0 16 0L0 0Z" fill="#fafaff"></path></svg>