<svg id="visual" viewBox="0 0 1920 300" width="1920" height="300" xmlns="http://www.w3.org/2000/svg" xmlns:xlink="http://www.w3.org/1999/xlink" version="1.1"><rect x="0" y="0" width="1920" height="300" fill="#0d8136"></rect><path d="M0 112L16 113C32 114 64 116 96 120.8C128 125.7 160 133.3 192 136.2C224 139 256 137 288 135.2C320 133.3 352 131.7 384 137.3C416 143 448 156 480 155.7C512 155.3 544 141.7 576 140.2C608 138.7 640 149.3 672 149.8C704 150.3 736 140.7 768 139C800 137.3 832 143.7 864 142.8C896 142 928 134 960 137.7C992 141.3 1024 156.7 1056 158.5C1088 160.3 1120 148.7 1152 141C1184 133.3 1216 129.7 1248 126.2C1280 122.7 1312 119.3 1344 118.2C1376 117 1408 118 1440 118.2C1472 118.3 1504 117.7 1536 120.8C1568 124 1600 131 1632 138C1664 145 1696 152 1728 148.2C1760 144.3 1792 129.7 1824 126C1856 122.3 1888 129.7 1904 133.3L1920 137L1920 0L1904 0C1888 0 1856 0 1824 0C1792 0 1760 0 1728 0C1696 0 1664 0 1632 0C1600 0 1568 0 1536 0C1504 0 1472 0 1440 0C1408 0 1376 0 1344 0C1312 0 1280 0 1248 0C1216 0 1184 0 1152 0C1120 0 1088 0 1056 0C1024 0 992 0 960 0C928 0 896 0 864 0C832 0 800 0 768 0C736 0 704 0 672 0C640 0 608 0 576 0C544 0 512 0 480 0C448 0 416 0 384 0C352 0 320 0 288 0C256 0 224 0 192 0C160 0 128 0 96 0C64 0 32 0 16 0L0 0Z" fill="#d6d6ff"></path><path d="M0 135L16 128.7C32 122.3 64 109.7 96 109.2C128 108.7 160 120.3 192 122.2C224 124 256 116 288 110.8C320 105.7 352 103.3 384 98C416 92.7 448 84.3 480 89.3C512 94.3 544 112.7 576 115C608 117.3 640 103.7 672 98C704 92.3 736 94.7 768 100C800 105.3 832 113.7 864 110.8C896 108 928 94 960 88.3C992 82.7 1024 85.3 1056 94.7C1088 104 1120 120 1152 118.2C1184 116.3 1216 96.7 1248 92C1280 87.3 1312 97.7 1344 108C1376 118.3 1408 128.7 1440 127.7C1472 126.7 1504 114.3 1536 113C1568 111.7 1600 121.3 1632 124.7C1664 128 1696 125 1728 126.3C1760 127.7 1792 133.3 1824 130.7C1856 128 1888 117 1904 111.5L1920 106L1920 0L1904 0C1888 0 1856 0 1824 0C1792 0 1760 0 1728 0C1696 0 1664 0 1632 0C1600 0 1568 0 1536 0C1504 0 1472 0 1440 0C1408 0 1376 0 1344 0C1312 0 1280 0 1248 0C1216 0 1184 0 1152 0C1120 0 1088 0 1056 0C1024 0 992 0 960 0C928 0 896 0 864 0C832 0 800 0 768 0C736 0 704 0 672 0C640 0 608 0 576 0C544 0 512 0 480 0C448 0 416 0 384 0C352 0 320 0 288 0C256 0 224 0 192 0C160 0 128 0 96 0C64 0 32 0 16 0L0 0Z" fill="#ededff"></path><path d="M0 84L16 81.2C32 78.3 64 72.7 96 67.5C128 62.3 160 57.7 192 61C224 64.3 256 75.7 288 76.2C320 76.7 352 66.3 384 61.8C416 57.3 448 58.7 480 57.8C512 57 544 54 576 55.5C608 57 640 63 672 68.8C704 74.7 736 80.3 768 79C800 77.7 832 69.3 864 70.5C896 71.7 928 82.3 960 88C992 93.7 1024 94.3 1056 86.7C1088 79 1120 63 1152 57.3C1184 51.7 1216 56.3 1248 58.3C1280 60.3 1312 59.7 1344 63.5C1376 67.3 1408 75.7 1440 81C1472 86.3 1504 88.7 1536 82.8C1568 77 1600 63 1632 59.7C1664 56.3 1696 63.7 1728 62.7C1760 61.7 1792 52.3 1824 49.8C1856 47.3 1888 51.7 1904 53.8L1920 56L1920 0L1904 0C1888 0 1856 0 1824 0C1792 0 1760 0 1728 0C1696 0 1664 0 1632 0C1600 0 1568 0 1536 0C1504 0 1472 0 1440 0C1408 0 1376 0 1344 0C1312 0 1280 0 1248 0C1216 0 1184 0 1152 0C1120 0 1088 0 1056 0C1024 0 992 0 960 0C928 0 896 0 864 0C832 0 800 0 768 0C736 0 704 0 672 0C640 0 608 0 576 0C544 0 512 0 480 0C448 0 416 0 384 0C352 0 320 0 288 0C256 0 224 0 192 0C160 0 128 0 96 0C64 0 32 0 16 0L0 0Z" fill="#f9f9ff"></path><path d="M0 63L16 62.8C32 62.7 64 62.3 96 60.8C128 59.3 160 56.7 192 48.7C224 40.7 256 27.3 288 20.8C320 14.3 352 14.7 384 19.7C416 24.7 448 34.3 480 37.3C512 40.3 544 36.7 576 39C608 41.3 640 49.7 672 49.8C704 50 736 42 768 34.5C800 27 832 20 864 19.2C896 18.3 928 23.7 960 24.3C992 25 1024 21 1056 18.5C1088 16 1120 15 1152 19.8C1184 24.7 1216 35.3 1248 43.7C1280 52 1312 58 1344 53.2C1376 48.3 1408 32.7 1440 25.7C1472 18.7 1504 20.3 1536 23C1568 25.7 1600 29.3 1632 36C1664 42.7 1696 52.3 1728 54.5C1760 56.7 1792 51.3 1824 47.2C1856 43 1888 40 1904 38.5L1920 37L1920 0L1904 0C1888 0 1856 0 1824 0C1792 0 1760 0 1728 0C1696 0 1664 0 1632 0C1600 0 1568 0 1536 0C1504 0 1472 0 1440 0C1408 0 1376 0 1344 0C1312 0 1280 0 1248 0C1216 0 1184 0 1152 0C1120 0 1088 0 1056 0C1024 0 992 0 960 0C928 0 896 0 864 0C832 0 800 0 768 0C736 0 704 0 672 0C640 0 608 0 576 0C544 0 512 0 480 0C448 0 416 0 384 0C352 0 320 0 288 0C256 0 224 0 192 0C160 0 128 0 96 0C64 0 32 0 16 0L0 0Z" fill="#fafaff"></path></svg>