<svg id="visual" viewBox="0 0 718 205" width="718" height="205" xmlns="http://www.w3.org/2000/svg" xmlns:xlink="http://www.w3.org/1999/xlink" version="1.1"><g><g transform="translate(353 75)"><path d="M22 -24.4C26.9 -11.5 28 -2.4 28 9.9C28 22.2 26.8 37.6 16.9 46.9C7.1 56.1 -11.4 59.1 -20.3 51.3C-29.3 43.5 -28.7 25 -32.8 7.4C-36.9 -10.2 -45.7 -26.9 -41.1 -39.8C-36.4 -52.7 -18.2 -61.9 -4.8 -58.1C8.6 -54.2 17.2 -37.4 22 -24.4Z" stroke="#48ae5a" fill="none" stroke-width="7"></path></g><g transform="translate(79 181)"><path d="M17.2 -13.4C20.7 -9.3 20.9 -2.3 19.7 5C18.4 12.3 15.8 19.8 10.4 22.9C5 26 -3.2 24.8 -8.8 21C-14.5 17.3 -17.6 11 -18.5 4.8C-19.5 -1.4 -18.3 -7.5 -14.8 -11.5C-11.4 -15.6 -5.7 -17.6 0.6 -18C6.9 -18.5 13.7 -17.4 17.2 -13.4Z" stroke="#48ae5a" fill="none" stroke-width="7"></path></g><g transform="translate(630 114)"><path d="M30.2 -24.6C38.4 -13.8 43.8 -1.3 41.3 9.2C38.7 19.7 28.2 28.3 15.3 36.2C2.4 44.1 -12.9 51.4 -24.2 47.2C-35.5 42.9 -42.8 27.2 -44.4 12.4C-45.9 -2.3 -41.7 -16.1 -33.3 -26.9C-25 -37.8 -12.5 -45.7 -0.7 -45.1C11 -44.5 22 -35.4 30.2 -24.6Z" stroke="#48ae5a" fill="none" stroke-width="7"></path></g><g transform="translate(250 200)"><path d="M22.5 -19.8C26.4 -12.9 25.2 -3.7 22 2.9C18.8 9.6 13.7 13.7 7.4 17.5C1.1 21.4 -6.3 24.9 -13 23.2C-19.8 21.4 -25.9 14.3 -26.2 7.5C-26.6 0.6 -21.2 -6 -15.9 -13.2C-10.6 -20.4 -5.3 -28.2 2 -29.8C9.2 -31.3 18.5 -26.7 22.5 -19.8Z" stroke="#48ae5a" fill="none" stroke-width="7"></path></g><g transform="translate(506 31)"><path d="M39 -31.9C46.1 -22.1 44.5 -6.2 38.9 5C33.2 16.2 23.6 22.6 13.8 26.5C4 30.4 -6 31.8 -18.2 29.2C-30.4 26.7 -44.7 20.1 -48.8 9.2C-52.9 -1.8 -46.7 -17.1 -36.9 -27.4C-27 -37.8 -13.5 -43.2 1.2 -44.2C15.9 -45.1 31.8 -41.6 39 -31.9Z" stroke="#48ae5a" fill="none" stroke-width="7"></path></g><g transform="translate(72 33)"><path d="M32.7 -22.4C39.6 -17.3 40.7 -3.9 38.2 9.4C35.7 22.8 29.7 36 20.6 38.8C11.5 41.7 -0.6 34.1 -9.4 27.1C-18.3 20 -23.7 13.3 -24.8 6.3C-25.9 -0.7 -22.7 -8.1 -17.8 -12.7C-13 -17.3 -6.5 -19.1 3.2 -21.6C12.9 -24.1 25.7 -27.4 32.7 -22.4Z" stroke="#48ae5a" fill="none" stroke-width="7"></path></g><g transform="translate(468 200)"><path d="M14.4 -11.7C18.3 -6.6 20.8 -0.6 19.9 5.1C19.1 10.8 14.8 16.3 9.6 18.1C4.4 20 -1.8 18.2 -8 15.6C-14.3 13 -20.7 9.6 -21.1 5.4C-21.6 1.3 -16.1 -3.6 -11.6 -8.8C-7.1 -14 -3.5 -19.6 0.9 -20.3C5.3 -21 10.5 -16.8 14.4 -11.7Z" stroke="#48ae5a" fill="none" stroke-width="7"></path></g><g transform="translate(220 4)"><path d="M27.3 -25.8C33.1 -14.4 34.2 -3.2 33 9.8C31.8 22.7 28.4 37.3 20.1 41C11.8 44.8 -1.4 37.6 -10.1 30C-18.9 22.4 -23.1 14.3 -27.9 3.5C-32.6 -7.4 -38 -21 -33.5 -32.1C-28.9 -43.2 -14.5 -51.9 -1.9 -50.4C10.7 -48.9 21.4 -37.2 27.3 -25.8Z" stroke="#48ae5a" fill="none" stroke-width="7"></path></g></g></svg>