<svg id="visual" viewBox="0 0 1920 800" width="1920" height="800" xmlns="http://www.w3.org/2000/svg" xmlns:xlink="http://www.w3.org/1999/xlink" version="1.1"><g stroke-width="1" stroke-linejoin="bevel"><path d="M841.3 436L672 410L656 602Z" fill="#17552b" stroke="#17552b"></path><path d="M656 602L850.3 611L841.3 436Z" fill="#156730" stroke="#156730"></path><path d="M656 602L671 800L850.3 611Z" fill="#175b2c" stroke="#175b2c"></path><path d="M671 800L865.3 800L850.3 611Z" fill="#127433" stroke="#127433"></path><path d="M850.3 611L1043.7 603L841.3 436Z" fill="#184325" stroke="#184325"></path><path d="M1029.7 800L1043.7 603L850.3 611Z" fill="#0d8136" stroke="#0d8136"></path><path d="M672 410L424.7 395L656 602Z" fill="#16612e" stroke="#16612e"></path><path d="M656 602L417.7 800L671 800Z" fill="#184f29" stroke="#184f29"></path><path d="M841.3 172L635 183L672 410Z" fill="#17552b" stroke="#17552b"></path><path d="M672 410L635 183L424.7 395Z" fill="#184f29" stroke="#184f29"></path><path d="M841.3 172L672 410L841.3 436Z" fill="#184f29" stroke="#184f29"></path><path d="M1051.7 200L841.3 172L841.3 436Z" fill="#17552b" stroke="#17552b"></path><path d="M424.7 395L386.7 563L656 602Z" fill="#156730" stroke="#156730"></path><path d="M1043.7 603L1092.7 427L841.3 436Z" fill="#136e31" stroke="#136e31"></path><path d="M865.3 800L1029.7 800L850.3 611Z" fill="#184f29" stroke="#184f29"></path><path d="M1306 590L1269 433L1092.7 427Z" fill="#0d8136" stroke="#0d8136"></path><path d="M386.7 563L417.7 800L656 602Z" fill="#184927" stroke="#184927"></path><path d="M1092.7 427L1051.7 200L841.3 436Z" fill="#156730" stroke="#156730"></path><path d="M635 183L387.7 160L424.7 395Z" fill="#127433" stroke="#127433"></path><path d="M211.3 395L229.3 571L386.7 563Z" fill="#17552b" stroke="#17552b"></path><path d="M609 0L387.7 160L635 183Z" fill="#107a35" stroke="#107a35"></path><path d="M211.3 395L386.7 563L424.7 395Z" fill="#107a35" stroke="#107a35"></path><path d="M386.7 563L229.3 571L417.7 800Z" fill="#0d8136" stroke="#0d8136"></path><path d="M1069.7 0L837.3 0L841.3 172Z" fill="#184f29" stroke="#184f29"></path><path d="M841.3 172L837.3 0L635 183Z" fill="#127433" stroke="#127433"></path><path d="M837.3 0L609 0L635 183Z" fill="#175b2c" stroke="#175b2c"></path><path d="M1306 590L1092.7 427L1043.7 603Z" fill="#175b2c" stroke="#175b2c"></path><path d="M1092.7 427L1241 197L1051.7 200Z" fill="#127433" stroke="#127433"></path><path d="M244.3 175L211.3 395L424.7 395Z" fill="#156730" stroke="#156730"></path><path d="M1253 800L1306 590L1043.7 603Z" fill="#156730" stroke="#156730"></path><path d="M1029.7 800L1253 800L1043.7 603Z" fill="#184927" stroke="#184927"></path><path d="M1281 0L1241 197L1503.3 216Z" fill="#156730" stroke="#156730"></path><path d="M1269 433L1241 197L1092.7 427Z" fill="#184f29" stroke="#184f29"></path><path d="M1051.7 200L1069.7 0L841.3 172Z" fill="#127433" stroke="#127433"></path><path d="M227.3 0L244.3 175L387.7 160Z" fill="#184927" stroke="#184927"></path><path d="M387.7 160L244.3 175L424.7 395Z" fill="#127433" stroke="#127433"></path><path d="M1241 197L1069.7 0L1051.7 200Z" fill="#184f29" stroke="#184f29"></path><path d="M609 0L410.7 0L387.7 160Z" fill="#184325" stroke="#184325"></path><path d="M0 596L199.3 800L229.3 571Z" fill="#184f29" stroke="#184f29"></path><path d="M229.3 571L199.3 800L417.7 800Z" fill="#156730" stroke="#156730"></path><path d="M0 362L0 596L211.3 395Z" fill="#0d8136" stroke="#0d8136"></path><path d="M410.7 0L227.3 0L387.7 160Z" fill="#175b2c" stroke="#175b2c"></path><path d="M1503.3 216L1241 197L1269 433Z" fill="#184325" stroke="#184325"></path><path d="M1241 197L1281 0L1069.7 0Z" fill="#107a35" stroke="#107a35"></path><path d="M211.3 395L0 596L229.3 571Z" fill="#17552b" stroke="#17552b"></path><path d="M0 362L211.3 395L244.3 175Z" fill="#17552b" stroke="#17552b"></path><path d="M1493.3 800L1487.3 588L1306 590Z" fill="#107a35" stroke="#107a35"></path><path d="M1306 590L1487.3 588L1269 433Z" fill="#156730" stroke="#156730"></path><path d="M0 165L0 362L244.3 175Z" fill="#184325" stroke="#184325"></path><path d="M1487.3 588L1528.3 388L1269 433Z" fill="#127433" stroke="#127433"></path><path d="M0 596L0 800L199.3 800Z" fill="#16612e" stroke="#16612e"></path><path d="M1253 800L1493.3 800L1306 590Z" fill="#136e31" stroke="#136e31"></path><path d="M1487.3 588L1668.7 388L1528.3 388Z" fill="#107a35" stroke="#107a35"></path><path d="M1528.3 388L1503.3 216L1269 433Z" fill="#184f29" stroke="#184f29"></path><path d="M227.3 0L0 165L244.3 175Z" fill="#184927" stroke="#184927"></path><path d="M227.3 0L0 0L0 165Z" fill="#184325" stroke="#184325"></path><path d="M1717.7 161L1514.3 0L1503.3 216Z" fill="#184325" stroke="#184325"></path><path d="M1503.3 216L1514.3 0L1281 0Z" fill="#175b2c" stroke="#175b2c"></path><path d="M1692.7 617L1668.7 388L1487.3 588Z" fill="#184325" stroke="#184325"></path><path d="M1528.3 388L1668.7 388L1503.3 216Z" fill="#16612e" stroke="#16612e"></path><path d="M1493.3 800L1692.7 617L1487.3 588Z" fill="#127433" stroke="#127433"></path><path d="M1493.3 800L1701.7 800L1692.7 617Z" fill="#136e31" stroke="#136e31"></path><path d="M1920 385L1717.7 161L1668.7 388Z" fill="#184f29" stroke="#184f29"></path><path d="M1668.7 388L1717.7 161L1503.3 216Z" fill="#127433" stroke="#127433"></path><path d="M1920 593L1668.7 388L1692.7 617Z" fill="#156730" stroke="#156730"></path><path d="M1717.7 161L1693.7 0L1514.3 0Z" fill="#16612e" stroke="#16612e"></path><path d="M1920 800L1920 593L1692.7 617Z" fill="#127433" stroke="#127433"></path><path d="M1717.7 161L1920 0L1693.7 0Z" fill="#184927" stroke="#184927"></path><path d="M1920 593L1920 385L1668.7 388Z" fill="#184325" stroke="#184325"></path><path d="M1701.7 800L1920 800L1692.7 617Z" fill="#184f29" stroke="#184f29"></path><path d="M1920 385L1920 176L1717.7 161Z" fill="#184325" stroke="#184325"></path><path d="M1920 176L1920 0L1717.7 161Z" fill="#107a35" stroke="#107a35"></path></g></svg>