<svg id="visual" viewBox="0 0 1920 400" width="1920" height="400" xmlns="http://www.w3.org/2000/svg" xmlns:xlink="http://www.w3.org/1999/xlink" version="1.1"><path d="M0 105L40 97C80 89 160 73 240 77C320 81 400 105 480 123C560 141 640 153 720 138.3C800 123.7 880 82.3 960 73.7C1040 65 1120 89 1200 95.7C1280 102.3 1360 91.7 1440 103C1520 114.3 1600 147.7 1680 145C1760 142.3 1840 103.7 1880 84.3L1920 65L1920 0L1880 0C1840 0 1760 0 1680 0C1600 0 1520 0 1440 0C1360 0 1280 0 1200 0C1120 0 1040 0 960 0C880 0 800 0 720 0C640 0 560 0 480 0C400 0 320 0 240 0C160 0 80 0 40 0L0 0Z" fill="#f9faff"></path><path d="M0 125L40 115.7C80 106.3 160 87.7 240 91.7C320 95.7 400 122.3 480 139.7C560 157 640 165 720 148.3C800 131.7 880 90.3 960 80.3C1040 70.3 1120 91.7 1200 97.7C1280 103.7 1360 94.3 1440 108.3C1520 122.3 1600 159.7 1680 159C1760 158.3 1840 119.7 1880 100.3L1920 81L1920 63L1880 82.3C1840 101.7 1760 140.3 1680 143C1600 145.7 1520 112.3 1440 101C1360 89.7 1280 100.3 1200 93.7C1120 87 1040 63 960 71.7C880 80.3 800 121.7 720 136.3C640 151 560 139 480 121C400 103 320 79 240 75C160 71 80 87 40 95L0 103Z" fill="#f8f9ff"></path><path d="M0 153L40 142.3C80 131.7 160 110.3 240 116.3C320 122.3 400 155.7 480 169.7C560 183.7 640 178.3 720 157C800 135.7 880 98.3 960 95C1040 91.7 1120 122.3 1200 129.7C1280 137 1360 121 1440 131.7C1520 142.3 1600 179.7 1680 182.3C1760 185 1840 153 1880 137L1920 121L1920 79L1880 98.3C1840 117.7 1760 156.3 1680 157C1600 157.7 1520 120.3 1440 106.3C1360 92.3 1280 101.7 1200 95.7C1120 89.7 1040 68.3 960 78.3C880 88.3 800 129.7 720 146.3C640 163 560 155 480 137.7C400 120.3 320 93.7 240 89.7C160 85.7 80 104.3 40 113.7L0 123Z" fill="#f6f8ff"></path><path d="M0 165L40 159C80 153 160 141 240 147.7C320 154.3 400 179.7 480 187C560 194.3 640 183.7 720 170.3C800 157 880 141 960 145.7C1040 150.3 1120 175.7 1200 173C1280 170.3 1360 139.7 1440 142.3C1520 145 1600 181 1680 189.7C1760 198.3 1840 179.7 1880 170.3L1920 161L1920 119L1880 135C1840 151 1760 183 1680 180.3C1600 177.7 1520 140.3 1440 129.7C1360 119 1280 135 1200 127.7C1120 120.3 1040 89.7 960 93C880 96.3 800 133.7 720 155C640 176.3 560 181.7 480 167.7C400 153.7 320 120.3 240 114.3C160 108.3 80 129.7 40 140.3L0 151Z" fill="#eaefff"></path><path d="M0 205L40 193.7C80 182.3 160 159.7 240 165C320 170.3 400 203.7 480 213.7C560 223.7 640 210.3 720 196.3C800 182.3 880 167.7 960 177.7C1040 187.7 1120 222.3 1200 221C1280 219.7 1360 182.3 1440 175.7C1520 169 1600 193 1680 202.3C1760 211.7 1840 206.3 1880 203.7L1920 201L1920 159L1880 168.3C1840 177.7 1760 196.3 1680 187.7C1600 179 1520 143 1440 140.3C1360 137.7 1280 168.3 1200 171C1120 173.7 1040 148.3 960 143.7C880 139 800 155 720 168.3C640 181.7 560 192.3 480 185C400 177.7 320 152.3 240 145.7C160 139 80 151 40 157L0 163Z" fill="#dbe3ff"></path><path d="M0 209L40 203C80 197 160 185 240 189.7C320 194.3 400 215.7 480 220.3C560 225 640 213 720 201.7C800 190.3 880 179.7 960 191.7C1040 203.7 1120 238.3 1200 237C1280 235.7 1360 198.3 1440 189C1520 179.7 1600 198.3 1680 209C1760 219.7 1840 222.3 1880 223.7L1920 225L1920 199L1880 201.7C1840 204.3 1760 209.7 1680 200.3C1600 191 1520 167 1440 173.7C1360 180.3 1280 217.7 1200 219C1120 220.3 1040 185.7 960 175.7C880 165.7 800 180.3 720 194.3C640 208.3 560 221.7 480 211.7C400 201.7 320 168.3 240 163C160 157.7 80 180.3 40 191.7L0 203Z" fill="#d5deff"></path><path d="M0 229L40 222.3C80 215.7 160 202.3 240 207.7C320 213 400 237 480 240.3C560 243.7 640 226.3 720 211C800 195.7 880 182.3 960 193.7C1040 205 1120 241 1200 240.3C1280 239.7 1360 202.3 1440 194.3C1520 186.3 1600 207.7 1680 219.7C1760 231.7 1840 234.3 1880 235.7L1920 237L1920 223L1880 221.7C1840 220.3 1760 217.7 1680 207C1600 196.3 1520 177.7 1440 187C1360 196.3 1280 233.7 1200 235C1120 236.3 1040 201.7 960 189.7C880 177.7 800 188.3 720 199.7C640 211 560 223 480 218.3C400 213.7 320 192.3 240 187.7C160 183 80 195 40 201L0 207Z" fill="#d5deff"></path><path d="M0 229L40 229.7C80 230.3 160 231.7 240 249.7C320 267.7 400 302.3 480 299.7C560 297 640 257 720 244.3C800 231.7 880 246.3 960 260.3C1040 274.3 1120 287.7 1200 284.3C1280 281 1360 261 1440 253.7C1520 246.3 1600 251.7 1680 259.7C1760 267.7 1840 278.3 1880 283.7L1920 289L1920 235L1880 233.7C1840 232.3 1760 229.7 1680 217.7C1600 205.7 1520 184.3 1440 192.3C1360 200.3 1280 237.7 1200 238.3C1120 239 1040 203 960 191.7C880 180.3 800 193.7 720 209C640 224.3 560 241.7 480 238.3C400 235 320 211 240 205.7C160 200.3 80 213.7 40 220.3L0 227Z" fill="#dbe3ff"></path><path d="M0 309L40 317C80 325 160 341 240 351.7C320 362.3 400 367.7 480 355C560 342.3 640 311.7 720 306.3C800 301 880 321 960 329C1040 337 1120 333 1200 325.7C1280 318.3 1360 307.7 1440 308.3C1520 309 1600 321 1680 325.7C1760 330.3 1840 327.7 1880 326.3L1920 325L1920 287L1880 281.7C1840 276.3 1760 265.7 1680 257.7C1600 249.7 1520 244.3 1440 251.7C1360 259 1280 279 1200 282.3C1120 285.7 1040 272.3 960 258.3C880 244.3 800 229.7 720 242.3C640 255 560 295 480 297.7C400 300.3 320 265.7 240 247.7C160 229.7 80 228.3 40 227.7L0 227Z" fill="#eaefff"></path><path d="M0 341L40 345C80 349 160 357 240 367C320 377 400 389 480 379C560 369 640 337 720 329C800 321 880 337 960 341.7C1040 346.3 1120 339.7 1200 334.3C1280 329 1360 325 1440 329.7C1520 334.3 1600 347.7 1680 348.3C1760 349 1840 337 1880 331L1920 325L1920 323L1880 324.3C1840 325.7 1760 328.3 1680 323.7C1600 319 1520 307 1440 306.3C1360 305.7 1280 316.3 1200 323.7C1120 331 1040 335 960 327C880 319 800 299 720 304.3C640 309.7 560 340.3 480 353C400 365.7 320 360.3 240 349.7C160 339 80 323 40 315L0 307Z" fill="#f6f8ff"></path><path d="M0 341L40 346.3C80 351.7 160 362.3 240 372.3C320 382.3 400 391.7 480 385C560 378.3 640 355.7 720 347.7C800 339.7 880 346.3 960 346.3C1040 346.3 1120 339.7 1200 337.7C1280 335.7 1360 338.3 1440 348.3C1520 358.3 1600 375.7 1680 379C1760 382.3 1840 371.7 1880 366.3L1920 361L1920 323L1880 329C1840 335 1760 347 1680 346.3C1600 345.7 1520 332.3 1440 327.7C1360 323 1280 327 1200 332.3C1120 337.7 1040 344.3 960 339.7C880 335 800 319 720 327C640 335 560 367 480 377C400 387 320 375 240 365C160 355 80 347 40 343L0 339Z" fill="#f8f9ff"></path><path d="M0 401L40 401C80 401 160 401 240 401C320 401 400 401 480 401C560 401 640 401 720 401C800 401 880 401 960 401C1040 401 1120 401 1200 401C1280 401 1360 401 1440 401C1520 401 1600 401 1680 401C1760 401 1840 401 1880 401L1920 401L1920 359L1880 364.3C1840 369.7 1760 380.3 1680 377C1600 373.7 1520 356.3 1440 346.3C1360 336.3 1280 333.7 1200 335.7C1120 337.7 1040 344.3 960 344.3C880 344.3 800 337.7 720 345.7C640 353.7 560 376.3 480 383C400 389.7 320 380.3 240 370.3C160 360.3 80 349.7 40 344.3L0 339Z" fill="#f9faff"></path></svg>