<svg id="visual" viewBox="0 0 1920 600" width="1920" height="600" xmlns="http://www.w3.org/2000/svg" xmlns:xlink="http://www.w3.org/1999/xlink" version="1.1"><path d="M0 13L32 16C64 19 128 25 192 29C256 33 320 35 384 33C448 31 512 25 576 25C640 25 704 31 768 34C832 37 896 37 960 33C1024 29 1088 21 1152 21C1216 21 1280 29 1344 33C1408 37 1472 37 1536 37C1600 37 1664 37 1728 33C1792 29 1856 21 1888 17L1920 13L1920 0L1888 0C1856 0 1792 0 1728 0C1664 0 1600 0 1536 0C1472 0 1408 0 1344 0C1280 0 1216 0 1152 0C1088 0 1024 0 960 0C896 0 832 0 768 0C704 0 640 0 576 0C512 0 448 0 384 0C320 0 256 0 192 0C128 0 64 0 32 0L0 0Z" fill="#fafaff"></path><path d="M0 187L32 177C64 167 128 147 192 150C256 153 320 179 384 194C448 209 512 213 576 200C640 187 704 157 768 143C832 129 896 131 960 131C1024 131 1088 129 1152 132C1216 135 1280 143 1344 145C1408 147 1472 143 1536 133C1600 123 1664 107 1728 108C1792 109 1856 127 1888 136L1920 145L1920 11L1888 15C1856 19 1792 27 1728 31C1664 35 1600 35 1536 35C1472 35 1408 35 1344 31C1280 27 1216 19 1152 19C1088 19 1024 27 960 31C896 35 832 35 768 32C704 29 640 23 576 23C512 23 448 29 384 31C320 33 256 31 192 27C128 23 64 17 32 14L0 11Z" fill="#f9f9ff"></path><path d="M0 199L32 191C64 183 128 167 192 169C256 171 320 191 384 206C448 221 512 231 576 222C640 213 704 185 768 168C832 151 896 145 960 142C1024 139 1088 139 1152 144C1216 149 1280 159 1344 162C1408 165 1472 161 1536 151C1600 141 1664 125 1728 124C1792 123 1856 137 1888 144L1920 151L1920 143L1888 134C1856 125 1792 107 1728 106C1664 105 1600 121 1536 131C1472 141 1408 145 1344 143C1280 141 1216 133 1152 130C1088 127 1024 129 960 129C896 129 832 127 768 141C704 155 640 185 576 198C512 211 448 207 384 192C320 177 256 151 192 148C128 145 64 165 32 175L0 185Z" fill="#f8f8ff"></path><path d="M0 217L32 213C64 209 128 201 192 208C256 215 320 237 384 247C448 257 512 255 576 247C640 239 704 225 768 212C832 199 896 187 960 181C1024 175 1088 175 1152 179C1216 183 1280 191 1344 197C1408 203 1472 207 1536 194C1600 181 1664 151 1728 150C1792 149 1856 177 1888 191L1920 205L1920 149L1888 142C1856 135 1792 121 1728 122C1664 123 1600 139 1536 149C1472 159 1408 163 1344 160C1280 157 1216 147 1152 142C1088 137 1024 137 960 140C896 143 832 149 768 166C704 183 640 211 576 220C512 229 448 219 384 204C320 189 256 169 192 167C128 165 64 181 32 189L0 197Z" fill="#ececff"></path><path d="M0 259L32 266C64 273 128 287 192 303C256 319 320 337 384 340C448 343 512 331 576 342C640 353 704 387 768 385C832 383 896 345 960 326C1024 307 1088 307 1152 321C1216 335 1280 363 1344 371C1408 379 1472 367 1536 350C1600 333 1664 311 1728 298C1792 285 1856 281 1888 279L1920 277L1920 203L1888 189C1856 175 1792 147 1728 148C1664 149 1600 179 1536 192C1472 205 1408 201 1344 195C1280 189 1216 181 1152 177C1088 173 1024 173 960 179C896 185 832 197 768 210C704 223 640 237 576 245C512 253 448 255 384 245C320 235 256 213 192 206C128 199 64 207 32 211L0 215Z" fill="#dcdcff"></path><path d="M0 331L32 330C64 329 128 327 192 336C256 345 320 365 384 372C448 379 512 373 576 390C640 407 704 447 768 442C832 437 896 387 960 364C1024 341 1088 345 1152 361C1216 377 1280 405 1344 409C1408 413 1472 393 1536 378C1600 363 1664 353 1728 349C1792 345 1856 347 1888 348L1920 349L1920 275L1888 277C1856 279 1792 283 1728 296C1664 309 1600 331 1536 348C1472 365 1408 377 1344 369C1280 361 1216 333 1152 319C1088 305 1024 305 960 324C896 343 832 381 768 383C704 385 640 351 576 340C512 329 448 341 384 338C320 335 256 317 192 301C128 285 64 271 32 264L0 257Z" fill="#d6d6ff"></path><path d="M0 385L32 381C64 377 128 369 192 376C256 383 320 405 384 413C448 421 512 415 576 427C640 439 704 469 768 463C832 457 896 415 960 395C1024 375 1088 377 1152 390C1216 403 1280 427 1344 429C1408 431 1472 411 1536 397C1600 383 1664 375 1728 372C1792 369 1856 371 1888 372L1920 373L1920 347L1888 346C1856 345 1792 343 1728 347C1664 351 1600 361 1536 376C1472 391 1408 411 1344 407C1280 403 1216 375 1152 359C1088 343 1024 339 960 362C896 385 832 435 768 440C704 445 640 405 576 388C512 371 448 377 384 370C320 363 256 343 192 334C128 325 64 327 32 328L0 329Z" fill="#d6d6ff"></path><path d="M0 463L32 458C64 453 128 443 192 441C256 439 320 445 384 452C448 459 512 467 576 481C640 495 704 515 768 512C832 509 896 483 960 467C1024 451 1088 445 1152 449C1216 453 1280 467 1344 469C1408 471 1472 461 1536 454C1600 447 1664 443 1728 448C1792 453 1856 467 1888 474L1920 481L1920 371L1888 370C1856 369 1792 367 1728 370C1664 373 1600 381 1536 395C1472 409 1408 429 1344 427C1280 425 1216 401 1152 388C1088 375 1024 373 960 393C896 413 832 455 768 461C704 467 640 437 576 425C512 413 448 419 384 411C320 403 256 381 192 374C128 367 64 375 32 379L0 383Z" fill="#dcdcff"></path><path d="M0 487L32 483C64 479 128 471 192 467C256 463 320 463 384 468C448 473 512 483 576 499C640 515 704 537 768 537C832 537 896 515 960 501C1024 487 1088 481 1152 484C1216 487 1280 499 1344 501C1408 503 1472 495 1536 490C1600 485 1664 483 1728 486C1792 489 1856 497 1888 501L1920 505L1920 479L1888 472C1856 465 1792 451 1728 446C1664 441 1600 445 1536 452C1472 459 1408 469 1344 467C1280 465 1216 451 1152 447C1088 443 1024 449 960 465C896 481 832 507 768 510C704 513 640 493 576 479C512 465 448 457 384 450C320 443 256 437 192 439C128 441 64 451 32 456L0 461Z" fill="#ececff"></path><path d="M0 511L32 508C64 505 128 499 192 494C256 489 320 485 384 492C448 499 512 517 576 531C640 545 704 555 768 550C832 545 896 525 960 517C1024 509 1088 513 1152 519C1216 525 1280 533 1344 535C1408 537 1472 533 1536 529C1600 525 1664 521 1728 519C1792 517 1856 517 1888 517L1920 517L1920 503L1888 499C1856 495 1792 487 1728 484C1664 481 1600 483 1536 488C1472 493 1408 501 1344 499C1280 497 1216 485 1152 482C1088 479 1024 485 960 499C896 513 832 535 768 535C704 535 640 513 576 497C512 481 448 471 384 466C320 461 256 461 192 465C128 469 64 477 32 481L0 485Z" fill="#f8f8ff"></path><path d="M0 583L32 581C64 579 128 575 192 572C256 569 320 567 384 564C448 561 512 557 576 561C640 565 704 577 768 583C832 589 896 589 960 582C1024 575 1088 561 1152 557C1216 553 1280 559 1344 563C1408 567 1472 569 1536 569C1600 569 1664 567 1728 562C1792 557 1856 549 1888 545L1920 541L1920 515L1888 515C1856 515 1792 515 1728 517C1664 519 1600 523 1536 527C1472 531 1408 535 1344 533C1280 531 1216 523 1152 517C1088 511 1024 507 960 515C896 523 832 543 768 548C704 553 640 543 576 529C512 515 448 497 384 490C320 483 256 487 192 492C128 497 64 503 32 506L0 509Z" fill="#f9f9ff"></path><path d="M0 601L32 601C64 601 128 601 192 601C256 601 320 601 384 601C448 601 512 601 576 601C640 601 704 601 768 601C832 601 896 601 960 601C1024 601 1088 601 1152 601C1216 601 1280 601 1344 601C1408 601 1472 601 1536 601C1600 601 1664 601 1728 601C1792 601 1856 601 1888 601L1920 601L1920 539L1888 543C1856 547 1792 555 1728 560C1664 565 1600 567 1536 567C1472 567 1408 565 1344 561C1280 557 1216 551 1152 555C1088 559 1024 573 960 580C896 587 832 587 768 581C704 575 640 563 576 559C512 555 448 559 384 562C320 565 256 567 192 570C128 573 64 577 32 579L0 581Z" fill="#fafaff"></path></svg>