<svg id="visual" viewBox="0 0 1440 1062" width="1440" height="1062" xmlns="http://www.w3.org/2000/svg" xmlns:xlink="http://www.w3.org/1999/xlink" version="1.1"><path d="M1353 1062L1355.3 1047.3C1357.7 1032.7 1362.3 1003.3 1359.8 973.8C1357.3 944.3 1347.7 914.7 1345.3 885.2C1343 855.7 1348 826.3 1350.5 796.8C1353 767.3 1353 737.7 1348.2 708C1343.3 678.3 1333.7 648.7 1336 619.2C1338.3 589.7 1352.7 560.3 1359.8 530.8C1367 501.3 1367 471.7 1367 442.2C1367 412.7 1367 383.3 1359.8 354C1352.7 324.7 1338.3 295.3 1336 265.8C1333.7 236.3 1343.3 206.7 1345.7 177.2C1348 147.7 1343 118.3 1343 88.8C1343 59.3 1348 29.7 1350.5 14.8L1353 0L1440 0L1440 14.8C1440 29.7 1440 59.3 1440 88.8C1440 118.3 1440 147.7 1440 177.2C1440 206.7 1440 236.3 1440 265.8C1440 295.3 1440 324.7 1440 354C1440 383.3 1440 412.7 1440 442.2C1440 471.7 1440 501.3 1440 530.8C1440 560.3 1440 589.7 1440 619.2C1440 648.7 1440 678.3 1440 708C1440 737.7 1440 767.3 1440 796.8C1440 826.3 1440 855.7 1440 885.2C1440 914.7 1440 944.3 1440 973.8C1440 1003.3 1440 1032.7 1440 1047.3L1440 1062Z" fill="#cdcdcd"></path><path d="M1252 1062L1247.2 1047.3C1242.3 1032.7 1232.7 1003.3 1225.5 973.8C1218.3 944.3 1213.7 914.7 1218.5 885.2C1223.3 855.7 1237.7 826.3 1244.8 796.8C1252 767.3 1252 737.7 1240 708C1228 678.3 1204 648.7 1204 619.2C1204 589.7 1228 560.3 1242.3 530.8C1256.7 501.3 1261.3 471.7 1258.8 442.2C1256.3 412.7 1246.7 383.3 1234.7 354C1222.7 324.7 1208.3 295.3 1210.8 265.8C1213.3 236.3 1232.7 206.7 1239.8 177.2C1247 147.7 1242 118.3 1237.2 88.8C1232.3 59.3 1227.7 29.7 1225.3 14.8L1223 0L1354 0L1351.5 14.8C1349 29.7 1344 59.3 1344 88.8C1344 118.3 1349 147.7 1346.7 177.2C1344.3 206.7 1334.7 236.3 1337 265.8C1339.3 295.3 1353.7 324.7 1360.8 354C1368 383.3 1368 412.7 1368 442.2C1368 471.7 1368 501.3 1360.8 530.8C1353.7 560.3 1339.3 589.7 1337 619.2C1334.7 648.7 1344.3 678.3 1349.2 708C1354 737.7 1354 767.3 1351.5 796.8C1349 826.3 1344 855.7 1346.3 885.2C1348.7 914.7 1358.3 944.3 1360.8 973.8C1363.3 1003.3 1358.7 1032.7 1356.3 1047.3L1354 1062Z" fill="#dcdcdf"></path><path d="M849 1062L851.3 1047.3C853.7 1032.7 858.3 1003.3 863 973.8C867.7 944.3 872.3 914.7 898.7 885.2C925 855.7 973 826.3 985 796.8C997 767.3 973 737.7 944.3 708C915.7 678.3 882.3 648.7 880 619.2C877.7 589.7 906.3 560.3 925.5 530.8C944.7 501.3 954.3 471.7 944.7 442.2C935 412.7 906 383.3 886.8 354C867.7 324.7 858.3 295.3 860.8 265.8C863.3 236.3 877.7 206.7 887.2 177.2C896.7 147.7 901.3 118.3 906.2 88.8C911 59.3 916 29.7 918.5 14.8L921 0L1224 0L1226.3 14.8C1228.7 29.7 1233.3 59.3 1238.2 88.8C1243 118.3 1248 147.7 1240.8 177.2C1233.7 206.7 1214.3 236.3 1211.8 265.8C1209.3 295.3 1223.7 324.7 1235.7 354C1247.7 383.3 1257.3 412.7 1259.8 442.2C1262.3 471.7 1257.7 501.3 1243.3 530.8C1229 560.3 1205 589.7 1205 619.2C1205 648.7 1229 678.3 1241 708C1253 737.7 1253 767.3 1245.8 796.8C1238.7 826.3 1224.3 855.7 1219.5 885.2C1214.7 914.7 1219.3 944.3 1226.5 973.8C1233.7 1003.3 1243.3 1032.7 1248.2 1047.3L1253 1062Z" fill="#ebebf1"></path><path d="M647 1062L642.2 1047.3C637.3 1032.7 627.7 1003.3 637.3 973.8C647 944.3 676 914.7 704.8 885.2C733.7 855.7 762.3 826.3 767 796.8C771.7 767.3 752.3 737.7 740.3 708C728.3 678.3 723.7 648.7 721.3 619.2C719 589.7 719 560.3 723.8 530.8C728.7 501.3 738.3 471.7 728.7 442.2C719 412.7 690 383.3 678 354C666 324.7 671 295.3 685.5 265.8C700 236.3 724 206.7 740.8 177.2C757.7 147.7 767.3 118.3 757.7 88.8C748 59.3 719 29.7 704.5 14.8L690 0L922 0L919.5 14.8C917 29.7 912 59.3 907.2 88.8C902.3 118.3 897.7 147.7 888.2 177.2C878.7 206.7 864.3 236.3 861.8 265.8C859.3 295.3 868.7 324.7 887.8 354C907 383.3 936 412.7 945.7 442.2C955.3 471.7 945.7 501.3 926.5 530.8C907.3 560.3 878.7 589.7 881 619.2C883.3 648.7 916.7 678.3 945.3 708C974 737.7 998 767.3 986 796.8C974 826.3 926 855.7 899.7 885.2C873.3 914.7 868.7 944.3 864 973.8C859.3 1003.3 854.7 1032.7 852.3 1047.3L850 1062Z" fill="#f8f8ff"></path><path d="M532 1062L522.3 1047.3C512.7 1032.7 493.3 1003.3 498.2 973.8C503 944.3 532 914.7 558.5 885.2C585 855.7 609 826.3 606.5 796.8C604 767.3 575 737.7 563 708C551 678.3 556 648.7 556 619.2C556 589.7 551 560.3 563 530.8C575 501.3 604 471.7 596.8 442.2C589.7 412.7 546.3 383.3 527 354C507.7 324.7 512.3 295.3 519.5 265.8C526.7 236.3 536.3 206.7 550.8 177.2C565.3 147.7 584.7 118.3 575.2 88.8C565.7 59.3 527.3 29.7 508.2 14.8L489 0L691 0L705.5 14.8C720 29.7 749 59.3 758.7 88.8C768.3 118.3 758.7 147.7 741.8 177.2C725 206.7 701 236.3 686.5 265.8C672 295.3 667 324.7 679 354C691 383.3 720 412.7 729.7 442.2C739.3 471.7 729.7 501.3 724.8 530.8C720 560.3 720 589.7 722.3 619.2C724.7 648.7 729.3 678.3 741.3 708C753.3 737.7 772.7 767.3 768 796.8C763.3 826.3 734.7 855.7 705.8 885.2C677 914.7 648 944.3 638.3 973.8C628.7 1003.3 638.3 1032.7 643.2 1047.3L648 1062Z" fill="#f8f8ff"></path><path d="M273 1062L263.3 1047.3C253.7 1032.7 234.3 1003.3 229.5 973.8C224.7 944.3 234.3 914.7 241.5 885.2C248.7 855.7 253.3 826.3 255.7 796.8C258 767.3 258 737.7 253.2 708C248.3 678.3 238.7 648.7 233.8 619.2C229 589.7 229 560.3 231.5 530.8C234 501.3 239 471.7 241.5 442.2C244 412.7 244 383.3 246.3 354C248.7 324.7 253.3 295.3 250.8 265.8C248.3 236.3 238.7 206.7 241.2 177.2C243.7 147.7 258.3 118.3 253.7 88.8C249 59.3 225 29.7 213 14.8L201 0L490 0L509.2 14.8C528.3 29.7 566.7 59.3 576.2 88.8C585.7 118.3 566.3 147.7 551.8 177.2C537.3 206.7 527.7 236.3 520.5 265.8C513.3 295.3 508.7 324.7 528 354C547.3 383.3 590.7 412.7 597.8 442.2C605 471.7 576 501.3 564 530.8C552 560.3 557 589.7 557 619.2C557 648.7 552 678.3 564 708C576 737.7 605 767.3 607.5 796.8C610 826.3 586 855.7 559.5 885.2C533 914.7 504 944.3 499.2 973.8C494.3 1003.3 513.7 1032.7 523.3 1047.3L533 1062Z" fill="#ebebf1"></path><path d="M157 1062L152.3 1047.3C147.7 1032.7 138.3 1003.3 131.2 973.8C124 944.3 119 914.7 126.2 885.2C133.3 855.7 152.7 826.3 159.8 796.8C167 767.3 162 737.7 157.2 708C152.3 678.3 147.7 648.7 138.2 619.2C128.7 589.7 114.3 560.3 114.3 530.8C114.3 501.3 128.7 471.7 140.7 442.2C152.7 412.7 162.3 383.3 162.3 354C162.3 324.7 152.7 295.3 145.5 265.8C138.3 236.3 133.7 206.7 133.7 177.2C133.7 147.7 138.3 118.3 133.5 88.8C128.7 59.3 114.3 29.7 107.2 14.8L100 0L202 0L214 14.8C226 29.7 250 59.3 254.7 88.8C259.3 118.3 244.7 147.7 242.2 177.2C239.7 206.7 249.3 236.3 251.8 265.8C254.3 295.3 249.7 324.7 247.3 354C245 383.3 245 412.7 242.5 442.2C240 471.7 235 501.3 232.5 530.8C230 560.3 230 589.7 234.8 619.2C239.7 648.7 249.3 678.3 254.2 708C259 737.7 259 767.3 256.7 796.8C254.3 826.3 249.7 855.7 242.5 885.2C235.3 914.7 225.7 944.3 230.5 973.8C235.3 1003.3 254.7 1032.7 264.3 1047.3L274 1062Z" fill="#dcdcdf"></path><path d="M0 1062L0 1047.3C0 1032.7 0 1003.3 0 973.8C0 944.3 0 914.7 0 885.2C0 855.7 0 826.3 0 796.8C0 767.3 0 737.7 0 708C0 678.3 0 648.7 0 619.2C0 589.7 0 560.3 0 530.8C0 501.3 0 471.7 0 442.2C0 412.7 0 383.3 0 354C0 324.7 0 295.3 0 265.8C0 236.3 0 206.7 0 177.2C0 147.7 0 118.3 0 88.8C0 59.3 0 29.7 0 14.8L0 0L101 0L108.2 14.8C115.3 29.7 129.7 59.3 134.5 88.8C139.3 118.3 134.7 147.7 134.7 177.2C134.7 206.7 139.3 236.3 146.5 265.8C153.7 295.3 163.3 324.7 163.3 354C163.3 383.3 153.7 412.7 141.7 442.2C129.7 471.7 115.3 501.3 115.3 530.8C115.3 560.3 129.7 589.7 139.2 619.2C148.7 648.7 153.3 678.3 158.2 708C163 737.7 168 767.3 160.8 796.8C153.7 826.3 134.3 855.7 127.2 885.2C120 914.7 125 944.3 132.2 973.8C139.3 1003.3 148.7 1032.7 153.3 1047.3L158 1062Z" fill="#cdcdcd"></path></svg>