<svg id="visual" viewBox="0 0 1062 120" width="1062" height="120" xmlns="http://www.w3.org/2000/svg" xmlns:xlink="http://www.w3.org/1999/xlink" version="1.1"><path d="M0 26L22.2 26.5C44.3 27 88.7 28 133 32.5C177.3 37 221.7 45 265.8 49C310 53 354 53 398.2 49.2C442.3 45.3 486.7 37.7 531 33.3C575.3 29 619.7 28 664 31.3C708.3 34.7 752.7 42.3 796.8 45.3C841 48.3 885 46.7 929.2 43.2C973.3 39.7 1017.7 34.3 1039.8 31.7L1062 29L1062 0L1039.8 0C1017.7 0 973.3 0 929.2 0C885 0 841 0 796.8 0C752.7 0 708.3 0 664 0C619.7 0 575.3 0 531 0C486.7 0 442.3 0 398.2 0C354 0 310 0 265.8 0C221.7 0 177.3 0 133 0C88.7 0 44.3 0 22.2 0L0 0Z" fill="#f8f8ff"></path><path d="M0 72L22.2 73.5C44.3 75 88.7 78 133 79C177.3 80 221.7 79 265.8 79C310 79 354 80 398.2 79.3C442.3 78.7 486.7 76.3 531 76.3C575.3 76.3 619.7 78.7 664 79.7C708.3 80.7 752.7 80.3 796.8 79.2C841 78 885 76 929.2 75.2C973.3 74.3 1017.7 74.7 1039.8 74.8L1062 75L1062 27L1039.8 29.7C1017.7 32.3 973.3 37.7 929.2 41.2C885 44.7 841 46.3 796.8 43.3C752.7 40.3 708.3 32.7 664 29.3C619.7 26 575.3 27 531 31.3C486.7 35.7 442.3 43.3 398.2 47.2C354 51 310 51 265.8 47C221.7 43 177.3 35 133 30.5C88.7 26 44.3 25 22.2 24.5L0 24Z" fill="#9e9fa4"></path><path d="M0 98L22.2 99.8C44.3 101.7 88.7 105.3 133 105.8C177.3 106.3 221.7 103.7 265.8 102.5C310 101.3 354 101.7 398.2 101.2C442.3 100.7 486.7 99.3 531 98.3C575.3 97.3 619.7 96.7 664 97.8C708.3 99 752.7 102 796.8 103.3C841 104.7 885 104.3 929.2 104C973.3 103.7 1017.7 103.3 1039.8 103.2L1062 103L1062 73L1039.8 72.8C1017.7 72.7 973.3 72.3 929.2 73.2C885 74 841 76 796.8 77.2C752.7 78.3 708.3 78.7 664 77.7C619.7 76.7 575.3 74.3 531 74.3C486.7 74.3 442.3 76.7 398.2 77.3C354 78 310 77 265.8 77C221.7 77 177.3 78 133 77C88.7 76 44.3 73 22.2 71.5L0 70Z" fill="#4d4e51"></path><path d="M0 121L22.2 121C44.3 121 88.7 121 133 121C177.3 121 221.7 121 265.8 121C310 121 354 121 398.2 121C442.3 121 486.7 121 531 121C575.3 121 619.7 121 664 121C708.3 121 752.7 121 796.8 121C841 121 885 121 929.2 121C973.3 121 1017.7 121 1039.8 121L1062 121L1062 101L1039.8 101.2C1017.7 101.3 973.3 101.7 929.2 102C885 102.3 841 102.7 796.8 101.3C752.7 100 708.3 97 664 95.8C619.7 94.7 575.3 95.3 531 96.3C486.7 97.3 442.3 98.7 398.2 99.2C354 99.7 310 99.3 265.8 100.5C221.7 101.7 177.3 104.3 133 103.8C88.7 103.3 44.3 99.7 22.2 97.8L0 96Z" fill="#030406"></path></svg>