<svg id="visual" viewBox="0 0 1062 120" width="1062" height="120" xmlns="http://www.w3.org/2000/svg" xmlns:xlink="http://www.w3.org/1999/xlink" version="1.1"><path d="M0 19L22.2 19.3C44.3 19.7 88.7 20.3 133 21.5C177.3 22.7 221.7 24.3 265.8 23C310 21.7 354 17.3 398.2 16C442.3 14.7 486.7 16.3 531 17.2C575.3 18 619.7 18 664 18.8C708.3 19.7 752.7 21.3 796.8 20.8C841 20.3 885 17.7 929.2 16.8C973.3 16 1017.7 17 1039.8 17.5L1062 18L1062 0L1039.8 0C1017.7 0 973.3 0 929.2 0C885 0 841 0 796.8 0C752.7 0 708.3 0 664 0C619.7 0 575.3 0 531 0C486.7 0 442.3 0 398.2 0C354 0 310 0 265.8 0C221.7 0 177.3 0 133 0C88.7 0 44.3 0 22.2 0L0 0Z" fill="#030406"></path><path d="M0 47L22.2 46C44.3 45 88.7 43 133 42.2C177.3 41.3 221.7 41.7 265.8 43C310 44.3 354 46.7 398.2 45C442.3 43.3 486.7 37.7 531 35.7C575.3 33.7 619.7 35.3 664 36.3C708.3 37.3 752.7 37.7 796.8 38.3C841 39 885 40 929.2 41C973.3 42 1017.7 43 1039.8 43.5L1062 44L1062 16L1039.8 15.5C1017.7 15 973.3 14 929.2 14.8C885 15.7 841 18.3 796.8 18.8C752.7 19.3 708.3 17.7 664 16.8C619.7 16 575.3 16 531 15.2C486.7 14.3 442.3 12.7 398.2 14C354 15.3 310 19.7 265.8 21C221.7 22.3 177.3 20.7 133 19.5C88.7 18.3 44.3 17.7 22.2 17.3L0 17Z" fill="#081c23"></path><path d="M0 91L22.2 86.7C44.3 82.3 88.7 73.7 133 71.5C177.3 69.3 221.7 73.7 265.8 75.7C310 77.7 354 77.3 398.2 74.5C442.3 71.7 486.7 66.3 531 67.8C575.3 69.3 619.7 77.7 664 80.8C708.3 84 752.7 82 796.8 78.8C841 75.7 885 71.3 929.2 71.3C973.3 71.3 1017.7 75.7 1039.8 77.8L1062 80L1062 42L1039.8 41.5C1017.7 41 973.3 40 929.2 39C885 38 841 37 796.8 36.3C752.7 35.7 708.3 35.3 664 34.3C619.7 33.3 575.3 31.7 531 33.7C486.7 35.7 442.3 41.3 398.2 43C354 44.7 310 42.3 265.8 41C221.7 39.7 177.3 39.3 133 40.2C88.7 41 44.3 43 22.2 44L0 45Z" fill="#00302e"></path><path d="M0 121L22.2 121C44.3 121 88.7 121 133 121C177.3 121 221.7 121 265.8 121C310 121 354 121 398.2 121C442.3 121 486.7 121 531 121C575.3 121 619.7 121 664 121C708.3 121 752.7 121 796.8 121C841 121 885 121 929.2 121C973.3 121 1017.7 121 1039.8 121L1062 121L1062 78L1039.8 75.8C1017.7 73.7 973.3 69.3 929.2 69.3C885 69.3 841 73.7 796.8 76.8C752.7 80 708.3 82 664 78.8C619.7 75.7 575.3 67.3 531 65.8C486.7 64.3 442.3 69.7 398.2 72.5C354 75.3 310 75.7 265.8 73.7C221.7 71.7 177.3 67.3 133 69.5C88.7 71.7 44.3 80.3 22.2 84.7L0 89Z" fill="#184325"></path></svg>