<svg id="visual" viewBox="0 0 1920 300" width="1920" height="300" xmlns="http://www.w3.org/2000/svg" xmlns:xlink="http://www.w3.org/1999/xlink" version="1.1"><rect x="0" y="0" width="1920" height="300" fill="#0d8136"></rect><path d="M0 121L26.7 115.7C53.3 110.3 106.7 99.7 160 97.7C213.3 95.7 266.7 102.3 320 99.3C373.3 96.3 426.7 83.7 480 81.8C533.3 80 586.7 89 640 95.3C693.3 101.7 746.7 105.3 800 100.2C853.3 95 906.7 81 960 82C1013.3 83 1066.7 99 1120 101.7C1173.3 104.3 1226.7 93.7 1280 92C1333.3 90.3 1386.7 97.7 1440 102.2C1493.3 106.7 1546.7 108.3 1600 102.2C1653.3 96 1706.7 82 1760 85C1813.3 88 1866.7 108 1893.3 118L1920 128L1920 301L1893.3 301C1866.7 301 1813.3 301 1760 301C1706.7 301 1653.3 301 1600 301C1546.7 301 1493.3 301 1440 301C1386.7 301 1333.3 301 1280 301C1226.7 301 1173.3 301 1120 301C1066.7 301 1013.3 301 960 301C906.7 301 853.3 301 800 301C746.7 301 693.3 301 640 301C586.7 301 533.3 301 480 301C426.7 301 373.3 301 320 301C266.7 301 213.3 301 160 301C106.7 301 53.3 301 26.7 301L0 301Z" fill="#d0ddff"></path><path d="M0 155L26.7 147.7C53.3 140.3 106.7 125.7 160 120.2C213.3 114.7 266.7 118.3 320 124.3C373.3 130.3 426.7 138.7 480 143C533.3 147.3 586.7 147.7 640 145.8C693.3 144 746.7 140 800 138.2C853.3 136.3 906.7 136.7 960 139.7C1013.3 142.7 1066.7 148.3 1120 143.5C1173.3 138.7 1226.7 123.3 1280 122C1333.3 120.7 1386.7 133.3 1440 136.5C1493.3 139.7 1546.7 133.3 1600 132.5C1653.3 131.7 1706.7 136.3 1760 136.8C1813.3 137.3 1866.7 133.7 1893.3 131.8L1920 130L1920 301L1893.3 301C1866.7 301 1813.3 301 1760 301C1706.7 301 1653.3 301 1600 301C1546.7 301 1493.3 301 1440 301C1386.7 301 1333.3 301 1280 301C1226.7 301 1173.3 301 1120 301C1066.7 301 1013.3 301 960 301C906.7 301 853.3 301 800 301C746.7 301 693.3 301 640 301C586.7 301 533.3 301 480 301C426.7 301 373.3 301 320 301C266.7 301 213.3 301 160 301C106.7 301 53.3 301 26.7 301L0 301Z" fill="#dde7ff"></path><path d="M0 168L26.7 163.8C53.3 159.7 106.7 151.3 160 151.2C213.3 151 266.7 159 320 166.5C373.3 174 426.7 181 480 179C533.3 177 586.7 166 640 160.8C693.3 155.7 746.7 156.3 800 155.2C853.3 154 906.7 151 960 156C1013.3 161 1066.7 174 1120 177.5C1173.3 181 1226.7 175 1280 172.5C1333.3 170 1386.7 171 1440 166.2C1493.3 161.3 1546.7 150.7 1600 153.5C1653.3 156.3 1706.7 172.7 1760 179.7C1813.3 186.7 1866.7 184.3 1893.3 183.2L1920 182L1920 301L1893.3 301C1866.7 301 1813.3 301 1760 301C1706.7 301 1653.3 301 1600 301C1546.7 301 1493.3 301 1440 301C1386.7 301 1333.3 301 1280 301C1226.7 301 1173.3 301 1120 301C1066.7 301 1013.3 301 960 301C906.7 301 853.3 301 800 301C746.7 301 693.3 301 640 301C586.7 301 533.3 301 480 301C426.7 301 373.3 301 320 301C266.7 301 213.3 301 160 301C106.7 301 53.3 301 26.7 301L0 301Z" fill="#eaf0ff"></path><path d="M0 199L26.7 197.2C53.3 195.3 106.7 191.7 160 191.2C213.3 190.7 266.7 193.3 320 197.7C373.3 202 426.7 208 480 208C533.3 208 586.7 202 640 197.5C693.3 193 746.7 190 800 192C853.3 194 906.7 201 960 204C1013.3 207 1066.7 206 1120 206.3C1173.3 206.7 1226.7 208.3 1280 205C1333.3 201.7 1386.7 193.3 1440 190.5C1493.3 187.7 1546.7 190.3 1600 191.3C1653.3 192.3 1706.7 191.7 1760 192C1813.3 192.3 1866.7 193.7 1893.3 194.3L1920 195L1920 301L1893.3 301C1866.7 301 1813.3 301 1760 301C1706.7 301 1653.3 301 1600 301C1546.7 301 1493.3 301 1440 301C1386.7 301 1333.3 301 1280 301C1226.7 301 1173.3 301 1120 301C1066.7 301 1013.3 301 960 301C906.7 301 853.3 301 800 301C746.7 301 693.3 301 640 301C586.7 301 533.3 301 480 301C426.7 301 373.3 301 320 301C266.7 301 213.3 301 160 301C106.7 301 53.3 301 26.7 301L0 301Z" fill="#f2f6ff"></path><path d="M0 228L26.7 229C53.3 230 106.7 232 160 230.8C213.3 229.7 266.7 225.3 320 222C373.3 218.7 426.7 216.3 480 216.8C533.3 217.3 586.7 220.7 640 225.2C693.3 229.7 746.7 235.3 800 239.2C853.3 243 906.7 245 960 243.3C1013.3 241.7 1066.7 236.3 1120 231.8C1173.3 227.3 1226.7 223.7 1280 223.3C1333.3 223 1386.7 226 1440 225.2C1493.3 224.3 1546.7 219.7 1600 217.3C1653.3 215 1706.7 215 1760 217.3C1813.3 219.7 1866.7 224.3 1893.3 226.7L1920 229L1920 301L1893.3 301C1866.7 301 1813.3 301 1760 301C1706.7 301 1653.3 301 1600 301C1546.7 301 1493.3 301 1440 301C1386.7 301 1333.3 301 1280 301C1226.7 301 1173.3 301 1120 301C1066.7 301 1013.3 301 960 301C906.7 301 853.3 301 800 301C746.7 301 693.3 301 640 301C586.7 301 533.3 301 480 301C426.7 301 373.3 301 320 301C266.7 301 213.3 301 160 301C106.7 301 53.3 301 26.7 301L0 301Z" fill="#f4f7ff"></path><path d="M0 254L26.7 258.2C53.3 262.3 106.7 270.7 160 270.5C213.3 270.3 266.7 261.7 320 257.8C373.3 254 426.7 255 480 253.7C533.3 252.3 586.7 248.7 640 249.2C693.3 249.7 746.7 254.3 800 260.2C853.3 266 906.7 273 960 270.3C1013.3 267.7 1066.7 255.3 1120 250.2C1173.3 245 1226.7 247 1280 247.8C1333.3 248.7 1386.7 248.3 1440 248.2C1493.3 248 1546.7 248 1600 249.3C1653.3 250.7 1706.7 253.3 1760 258.5C1813.3 263.7 1866.7 271.3 1893.3 275.2L1920 279L1920 301L1893.3 301C1866.7 301 1813.3 301 1760 301C1706.7 301 1653.3 301 1600 301C1546.7 301 1493.3 301 1440 301C1386.7 301 1333.3 301 1280 301C1226.7 301 1173.3 301 1120 301C1066.7 301 1013.3 301 960 301C906.7 301 853.3 301 800 301C746.7 301 693.3 301 640 301C586.7 301 533.3 301 480 301C426.7 301 373.3 301 320 301C266.7 301 213.3 301 160 301C106.7 301 53.3 301 26.7 301L0 301Z" fill="#f6f8ff"></path></svg>