<svg id="visual" viewBox="0 0 1920 300" width="1920" height="300" xmlns="http://www.w3.org/2000/svg" xmlns:xlink="http://www.w3.org/1999/xlink" version="1.1"><rect x="0" y="0" width="1920" height="300" fill="#0c8136"></rect><path d="M0 173L16 173.2C32 173.3 64 173.7 96 174.5C128 175.3 160 176.7 192 172.3C224 168 256 158 288 155.3C320 152.7 352 157.3 384 159.2C416 161 448 160 480 158.5C512 157 544 155 576 154.3C608 153.7 640 154.3 672 153.8C704 153.3 736 151.7 768 155C800 158.3 832 166.7 864 167C896 167.3 928 159.7 960 156.2C992 152.7 1024 153.3 1056 152.8C1088 152.3 1120 150.7 1152 150.2C1184 149.7 1216 150.3 1248 151.3C1280 152.3 1312 153.7 1344 158.5C1376 163.3 1408 171.7 1440 173.7C1472 175.7 1504 171.3 1536 170.3C1568 169.3 1600 171.7 1632 173.2C1664 174.7 1696 175.3 1728 174.2C1760 173 1792 170 1824 170.3C1856 170.7 1888 174.3 1904 176.2L1920 178L1920 301L1904 301C1888 301 1856 301 1824 301C1792 301 1760 301 1728 301C1696 301 1664 301 1632 301C1600 301 1568 301 1536 301C1504 301 1472 301 1440 301C1408 301 1376 301 1344 301C1312 301 1280 301 1248 301C1216 301 1184 301 1152 301C1120 301 1088 301 1056 301C1024 301 992 301 960 301C928 301 896 301 864 301C832 301 800 301 768 301C736 301 704 301 672 301C640 301 608 301 576 301C544 301 512 301 480 301C448 301 416 301 384 301C352 301 320 301 288 301C256 301 224 301 192 301C160 301 128 301 96 301C64 301 32 301 16 301L0 301Z" fill="#d6d6ff"></path><path d="M0 199L16 194.8C32 190.7 64 182.3 96 181.2C128 180 160 186 192 187C224 188 256 184 288 181.7C320 179.3 352 178.7 384 179.5C416 180.3 448 182.7 480 185.8C512 189 544 193 576 195.2C608 197.3 640 197.7 672 195.3C704 193 736 188 768 187.8C800 187.7 832 192.3 864 192.8C896 193.3 928 189.7 960 190.5C992 191.3 1024 196.7 1056 194.5C1088 192.3 1120 182.7 1152 177.8C1184 173 1216 173 1248 174.2C1280 175.3 1312 177.7 1344 178.2C1376 178.7 1408 177.3 1440 178.3C1472 179.3 1504 182.7 1536 185.5C1568 188.3 1600 190.7 1632 189.8C1664 189 1696 185 1728 185.5C1760 186 1792 191 1824 193.7C1856 196.3 1888 196.7 1904 196.8L1920 197L1920 301L1904 301C1888 301 1856 301 1824 301C1792 301 1760 301 1728 301C1696 301 1664 301 1632 301C1600 301 1568 301 1536 301C1504 301 1472 301 1440 301C1408 301 1376 301 1344 301C1312 301 1280 301 1248 301C1216 301 1184 301 1152 301C1120 301 1088 301 1056 301C1024 301 992 301 960 301C928 301 896 301 864 301C832 301 800 301 768 301C736 301 704 301 672 301C640 301 608 301 576 301C544 301 512 301 480 301C448 301 416 301 384 301C352 301 320 301 288 301C256 301 224 301 192 301C160 301 128 301 96 301C64 301 32 301 16 301L0 301Z" fill="#e4e4ff"></path><path d="M0 206L16 204.8C32 203.7 64 201.3 96 203.2C128 205 160 211 192 210C224 209 256 201 288 200.5C320 200 352 207 384 210.5C416 214 448 214 480 215.2C512 216.3 544 218.7 576 218.8C608 219 640 217 672 215.7C704 214.3 736 213.7 768 210.2C800 206.7 832 200.3 864 198.7C896 197 928 200 960 202.3C992 204.7 1024 206.3 1056 204.7C1088 203 1120 198 1152 198.3C1184 198.7 1216 204.3 1248 205.5C1280 206.7 1312 203.3 1344 203.3C1376 203.3 1408 206.7 1440 209.8C1472 213 1504 216 1536 215.5C1568 215 1600 211 1632 208.8C1664 206.7 1696 206.3 1728 207.2C1760 208 1792 210 1824 210.8C1856 211.7 1888 211.3 1904 211.2L1920 211L1920 301L1904 301C1888 301 1856 301 1824 301C1792 301 1760 301 1728 301C1696 301 1664 301 1632 301C1600 301 1568 301 1536 301C1504 301 1472 301 1440 301C1408 301 1376 301 1344 301C1312 301 1280 301 1248 301C1216 301 1184 301 1152 301C1120 301 1088 301 1056 301C1024 301 992 301 960 301C928 301 896 301 864 301C832 301 800 301 768 301C736 301 704 301 672 301C640 301 608 301 576 301C544 301 512 301 480 301C448 301 416 301 384 301C352 301 320 301 288 301C256 301 224 301 192 301C160 301 128 301 96 301C64 301 32 301 16 301L0 301Z" fill="#f1f1ff"></path><path d="M0 218L16 217.8C32 217.7 64 217.3 96 219C128 220.7 160 224.3 192 227.8C224 231.3 256 234.7 288 235.8C320 237 352 236 384 235.2C416 234.3 448 233.7 480 232C512 230.3 544 227.7 576 227C608 226.3 640 227.7 672 229.5C704 231.3 736 233.7 768 233.5C800 233.3 832 230.7 864 230.2C896 229.7 928 231.3 960 233.2C992 235 1024 237 1056 235C1088 233 1120 227 1152 224.8C1184 222.7 1216 224.3 1248 227.7C1280 231 1312 236 1344 234.8C1376 233.7 1408 226.3 1440 223.8C1472 221.3 1504 223.7 1536 223.8C1568 224 1600 222 1632 224.5C1664 227 1696 234 1728 237.8C1760 241.7 1792 242.3 1824 240.7C1856 239 1888 235 1904 233L1920 231L1920 301L1904 301C1888 301 1856 301 1824 301C1792 301 1760 301 1728 301C1696 301 1664 301 1632 301C1600 301 1568 301 1536 301C1504 301 1472 301 1440 301C1408 301 1376 301 1344 301C1312 301 1280 301 1248 301C1216 301 1184 301 1152 301C1120 301 1088 301 1056 301C1024 301 992 301 960 301C928 301 896 301 864 301C832 301 800 301 768 301C736 301 704 301 672 301C640 301 608 301 576 301C544 301 512 301 480 301C448 301 416 301 384 301C352 301 320 301 288 301C256 301 224 301 192 301C160 301 128 301 96 301C64 301 32 301 16 301L0 301Z" fill="#f8f8ff"></path><path d="M0 255L16 255.5C32 256 64 257 96 258C128 259 160 260 192 258.7C224 257.3 256 253.7 288 251.8C320 250 352 250 384 251.2C416 252.3 448 254.7 480 253.3C512 252 544 247 576 247.2C608 247.3 640 252.7 672 255.5C704 258.3 736 258.7 768 259.3C800 260 832 261 864 258.3C896 255.7 928 249.3 960 247C992 244.7 1024 246.3 1056 246.8C1088 247.3 1120 246.7 1152 246.8C1184 247 1216 248 1248 250.5C1280 253 1312 257 1344 256.8C1376 256.7 1408 252.3 1440 249.2C1472 246 1504 244 1536 244.8C1568 245.7 1600 249.3 1632 251.2C1664 253 1696 253 1728 254.3C1760 255.7 1792 258.3 1824 257.7C1856 257 1888 253 1904 251L1920 249L1920 301L1904 301C1888 301 1856 301 1824 301C1792 301 1760 301 1728 301C1696 301 1664 301 1632 301C1600 301 1568 301 1536 301C1504 301 1472 301 1440 301C1408 301 1376 301 1344 301C1312 301 1280 301 1248 301C1216 301 1184 301 1152 301C1120 301 1088 301 1056 301C1024 301 992 301 960 301C928 301 896 301 864 301C832 301 800 301 768 301C736 301 704 301 672 301C640 301 608 301 576 301C544 301 512 301 480 301C448 301 416 301 384 301C352 301 320 301 288 301C256 301 224 301 192 301C160 301 128 301 96 301C64 301 32 301 16 301L0 301Z" fill="#f9f9ff"></path><path d="M0 284L16 283.8C32 283.7 64 283.3 96 282.7C128 282 160 281 192 278.2C224 275.3 256 270.7 288 271C320 271.3 352 276.7 384 278.2C416 279.7 448 277.3 480 274.2C512 271 544 267 576 265.7C608 264.3 640 265.7 672 268.7C704 271.7 736 276.3 768 277C800 277.7 832 274.3 864 274C896 273.7 928 276.3 960 276.5C992 276.7 1024 274.3 1056 273C1088 271.7 1120 271.3 1152 271.8C1184 272.3 1216 273.7 1248 273.8C1280 274 1312 273 1344 272.5C1376 272 1408 272 1440 270.8C1472 269.7 1504 267.3 1536 267.7C1568 268 1600 271 1632 273.2C1664 275.3 1696 276.7 1728 277.3C1760 278 1792 278 1824 277C1856 276 1888 274 1904 273L1920 272L1920 301L1904 301C1888 301 1856 301 1824 301C1792 301 1760 301 1728 301C1696 301 1664 301 1632 301C1600 301 1568 301 1536 301C1504 301 1472 301 1440 301C1408 301 1376 301 1344 301C1312 301 1280 301 1248 301C1216 301 1184 301 1152 301C1120 301 1088 301 1056 301C1024 301 992 301 960 301C928 301 896 301 864 301C832 301 800 301 768 301C736 301 704 301 672 301C640 301 608 301 576 301C544 301 512 301 480 301C448 301 416 301 384 301C352 301 320 301 288 301C256 301 224 301 192 301C160 301 128 301 96 301C64 301 32 301 16 301L0 301Z" fill="#fafaff"></path></svg>