<svg id="visual" viewBox="0 0 1920 300" width="1920" height="300" xmlns="http://www.w3.org/2000/svg" xmlns:xlink="http://www.w3.org/1999/xlink" version="1.1"><rect x="0" y="0" width="1920" height="300" fill="#0d8136"></rect><path d="M0 201L26.7 199.8C53.3 198.7 106.7 196.3 160 194.8C213.3 193.3 266.7 192.7 320 190.8C373.3 189 426.7 186 480 187.3C533.3 188.7 586.7 194.3 640 196.3C693.3 198.3 746.7 196.7 800 200.3C853.3 204 906.7 213 960 210.8C1013.3 208.7 1066.7 195.3 1120 189C1173.3 182.7 1226.7 183.3 1280 185.5C1333.3 187.7 1386.7 191.3 1440 191.3C1493.3 191.3 1546.7 187.7 1600 192.2C1653.3 196.7 1706.7 209.3 1760 216.5C1813.3 223.7 1866.7 225.3 1893.3 226.2L1920 227L1920 0L1893.3 0C1866.7 0 1813.3 0 1760 0C1706.7 0 1653.3 0 1600 0C1546.7 0 1493.3 0 1440 0C1386.7 0 1333.3 0 1280 0C1226.7 0 1173.3 0 1120 0C1066.7 0 1013.3 0 960 0C906.7 0 853.3 0 800 0C746.7 0 693.3 0 640 0C586.7 0 533.3 0 480 0C426.7 0 373.3 0 320 0C266.7 0 213.3 0 160 0C106.7 0 53.3 0 26.7 0L0 0Z" fill="#d0ddff"></path><path d="M0 142L26.7 143.5C53.3 145 106.7 148 160 153.3C213.3 158.7 266.7 166.3 320 166.8C373.3 167.3 426.7 160.7 480 154.3C533.3 148 586.7 142 640 145.8C693.3 149.7 746.7 163.3 800 168.7C853.3 174 906.7 171 960 172.2C1013.3 173.3 1066.7 178.7 1120 181.7C1173.3 184.7 1226.7 185.3 1280 179C1333.3 172.7 1386.7 159.3 1440 153.3C1493.3 147.3 1546.7 148.7 1600 149.7C1653.3 150.7 1706.7 151.3 1760 156C1813.3 160.7 1866.7 169.3 1893.3 173.7L1920 178L1920 0L1893.3 0C1866.7 0 1813.3 0 1760 0C1706.7 0 1653.3 0 1600 0C1546.7 0 1493.3 0 1440 0C1386.7 0 1333.3 0 1280 0C1226.7 0 1173.3 0 1120 0C1066.7 0 1013.3 0 960 0C906.7 0 853.3 0 800 0C746.7 0 693.3 0 640 0C586.7 0 533.3 0 480 0C426.7 0 373.3 0 320 0C266.7 0 213.3 0 160 0C106.7 0 53.3 0 26.7 0L0 0Z" fill="#dde7ff"></path><path d="M0 126L26.7 126C53.3 126 106.7 126 160 125.8C213.3 125.7 266.7 125.3 320 121.7C373.3 118 426.7 111 480 113.8C533.3 116.7 586.7 129.3 640 133C693.3 136.7 746.7 131.3 800 127.5C853.3 123.7 906.7 121.3 960 121C1013.3 120.7 1066.7 122.3 1120 120.8C1173.3 119.3 1226.7 114.7 1280 117.2C1333.3 119.7 1386.7 129.3 1440 130.3C1493.3 131.3 1546.7 123.7 1600 120.2C1653.3 116.7 1706.7 117.3 1760 119.2C1813.3 121 1866.7 124 1893.3 125.5L1920 127L1920 0L1893.3 0C1866.7 0 1813.3 0 1760 0C1706.7 0 1653.3 0 1600 0C1546.7 0 1493.3 0 1440 0C1386.7 0 1333.3 0 1280 0C1226.7 0 1173.3 0 1120 0C1066.7 0 1013.3 0 960 0C906.7 0 853.3 0 800 0C746.7 0 693.3 0 640 0C586.7 0 533.3 0 480 0C426.7 0 373.3 0 320 0C266.7 0 213.3 0 160 0C106.7 0 53.3 0 26.7 0L0 0Z" fill="#eaf0ff"></path><path d="M0 82L26.7 81.3C53.3 80.7 106.7 79.3 160 81.8C213.3 84.3 266.7 90.7 320 91.2C373.3 91.7 426.7 86.3 480 89.2C533.3 92 586.7 103 640 108.5C693.3 114 746.7 114 800 108.2C853.3 102.3 906.7 90.7 960 86.8C1013.3 83 1066.7 87 1120 87.7C1173.3 88.3 1226.7 85.7 1280 89.5C1333.3 93.3 1386.7 103.7 1440 108.3C1493.3 113 1546.7 112 1600 108.8C1653.3 105.7 1706.7 100.3 1760 101.5C1813.3 102.7 1866.7 110.3 1893.3 114.2L1920 118L1920 0L1893.3 0C1866.7 0 1813.3 0 1760 0C1706.7 0 1653.3 0 1600 0C1546.7 0 1493.3 0 1440 0C1386.7 0 1333.3 0 1280 0C1226.7 0 1173.3 0 1120 0C1066.7 0 1013.3 0 960 0C906.7 0 853.3 0 800 0C746.7 0 693.3 0 640 0C586.7 0 533.3 0 480 0C426.7 0 373.3 0 320 0C266.7 0 213.3 0 160 0C106.7 0 53.3 0 26.7 0L0 0Z" fill="#f2f6ff"></path><path d="M0 46L26.7 52.8C53.3 59.7 106.7 73.3 160 76.2C213.3 79 266.7 71 320 67.2C373.3 63.3 426.7 63.7 480 67.7C533.3 71.7 586.7 79.3 640 80.2C693.3 81 746.7 75 800 71.2C853.3 67.3 906.7 65.7 960 68.5C1013.3 71.3 1066.7 78.7 1120 79C1173.3 79.3 1226.7 72.7 1280 73.2C1333.3 73.7 1386.7 81.3 1440 79.3C1493.3 77.3 1546.7 65.7 1600 60.5C1653.3 55.3 1706.7 56.7 1760 61.5C1813.3 66.3 1866.7 74.7 1893.3 78.8L1920 83L1920 0L1893.3 0C1866.7 0 1813.3 0 1760 0C1706.7 0 1653.3 0 1600 0C1546.7 0 1493.3 0 1440 0C1386.7 0 1333.3 0 1280 0C1226.7 0 1173.3 0 1120 0C1066.7 0 1013.3 0 960 0C906.7 0 853.3 0 800 0C746.7 0 693.3 0 640 0C586.7 0 533.3 0 480 0C426.7 0 373.3 0 320 0C266.7 0 213.3 0 160 0C106.7 0 53.3 0 26.7 0L0 0Z" fill="#f4f7ff"></path><path d="M0 19L26.7 19.8C53.3 20.7 106.7 22.3 160 27.3C213.3 32.3 266.7 40.7 320 40C373.3 39.3 426.7 29.7 480 25.7C533.3 21.7 586.7 23.3 640 28.7C693.3 34 746.7 43 800 44.2C853.3 45.3 906.7 38.7 960 37.8C1013.3 37 1066.7 42 1120 40.5C1173.3 39 1226.7 31 1280 29.8C1333.3 28.7 1386.7 34.3 1440 36.7C1493.3 39 1546.7 38 1600 39C1653.3 40 1706.7 43 1760 40.7C1813.3 38.3 1866.7 30.7 1893.3 26.8L1920 23L1920 0L1893.3 0C1866.7 0 1813.3 0 1760 0C1706.7 0 1653.3 0 1600 0C1546.7 0 1493.3 0 1440 0C1386.7 0 1333.3 0 1280 0C1226.7 0 1173.3 0 1120 0C1066.7 0 1013.3 0 960 0C906.7 0 853.3 0 800 0C746.7 0 693.3 0 640 0C586.7 0 533.3 0 480 0C426.7 0 373.3 0 320 0C266.7 0 213.3 0 160 0C106.7 0 53.3 0 26.7 0L0 0Z" fill="#f6f8ff"></path></svg>