<svg id="visual" viewBox="0 0 1920 300" width="1920" height="300" xmlns="http://www.w3.org/2000/svg" xmlns:xlink="http://www.w3.org/1999/xlink" version="1.1"><rect x="0" y="0" width="1920" height="300" fill="#0d8136"></rect><path d="M0 130L26.7 126.5C53.3 123 106.7 116 160 110C213.3 104 266.7 99 320 95C373.3 91 426.7 88 480 90.2C533.3 92.3 586.7 99.7 640 103.8C693.3 108 746.7 109 800 103.5C853.3 98 906.7 86 960 84C1013.3 82 1066.7 90 1120 94.8C1173.3 99.7 1226.7 101.3 1280 104.7C1333.3 108 1386.7 113 1440 115C1493.3 117 1546.7 116 1600 110.5C1653.3 105 1706.7 95 1760 97.2C1813.3 99.3 1866.7 113.7 1893.3 120.8L1920 128L1920 301L1893.3 301C1866.7 301 1813.3 301 1760 301C1706.7 301 1653.3 301 1600 301C1546.7 301 1493.3 301 1440 301C1386.7 301 1333.3 301 1280 301C1226.7 301 1173.3 301 1120 301C1066.7 301 1013.3 301 960 301C906.7 301 853.3 301 800 301C746.7 301 693.3 301 640 301C586.7 301 533.3 301 480 301C426.7 301 373.3 301 320 301C266.7 301 213.3 301 160 301C106.7 301 53.3 301 26.7 301L0 301Z" fill="#d0ddff"></path><path d="M0 104L26.7 111.2C53.3 118.3 106.7 132.7 160 136.2C213.3 139.7 266.7 132.3 320 128.5C373.3 124.7 426.7 124.3 480 122C533.3 119.7 586.7 115.3 640 112.3C693.3 109.3 746.7 107.7 800 111.2C853.3 114.7 906.7 123.3 960 128.7C1013.3 134 1066.7 136 1120 137.2C1173.3 138.3 1226.7 138.7 1280 132.7C1333.3 126.7 1386.7 114.3 1440 117.5C1493.3 120.7 1546.7 139.3 1600 140C1653.3 140.7 1706.7 123.3 1760 122.5C1813.3 121.7 1866.7 137.3 1893.3 145.2L1920 153L1920 301L1893.3 301C1866.7 301 1813.3 301 1760 301C1706.7 301 1653.3 301 1600 301C1546.7 301 1493.3 301 1440 301C1386.7 301 1333.3 301 1280 301C1226.7 301 1173.3 301 1120 301C1066.7 301 1013.3 301 960 301C906.7 301 853.3 301 800 301C746.7 301 693.3 301 640 301C586.7 301 533.3 301 480 301C426.7 301 373.3 301 320 301C266.7 301 213.3 301 160 301C106.7 301 53.3 301 26.7 301L0 301Z" fill="#dde7ff"></path><path d="M0 176L26.7 173.5C53.3 171 106.7 166 160 162.3C213.3 158.7 266.7 156.3 320 159C373.3 161.7 426.7 169.3 480 174.5C533.3 179.7 586.7 182.3 640 177C693.3 171.7 746.7 158.3 800 152C853.3 145.7 906.7 146.3 960 152.7C1013.3 159 1066.7 171 1120 170.7C1173.3 170.3 1226.7 157.7 1280 155.2C1333.3 152.7 1386.7 160.3 1440 164.8C1493.3 169.3 1546.7 170.7 1600 173C1653.3 175.3 1706.7 178.7 1760 175.2C1813.3 171.7 1866.7 161.3 1893.3 156.2L1920 151L1920 301L1893.3 301C1866.7 301 1813.3 301 1760 301C1706.7 301 1653.3 301 1600 301C1546.7 301 1493.3 301 1440 301C1386.7 301 1333.3 301 1280 301C1226.7 301 1173.3 301 1120 301C1066.7 301 1013.3 301 960 301C906.7 301 853.3 301 800 301C746.7 301 693.3 301 640 301C586.7 301 533.3 301 480 301C426.7 301 373.3 301 320 301C266.7 301 213.3 301 160 301C106.7 301 53.3 301 26.7 301L0 301Z" fill="#eaf0ff"></path><path d="M0 204L26.7 203.8C53.3 203.7 106.7 203.3 160 206C213.3 208.7 266.7 214.3 320 213.2C373.3 212 426.7 204 480 197C533.3 190 586.7 184 640 187.3C693.3 190.7 746.7 203.3 800 206.3C853.3 209.3 906.7 202.7 960 203C1013.3 203.3 1066.7 210.7 1120 211.8C1173.3 213 1226.7 208 1280 206.3C1333.3 204.7 1386.7 206.3 1440 206.7C1493.3 207 1546.7 206 1600 202.7C1653.3 199.3 1706.7 193.7 1760 192.7C1813.3 191.7 1866.7 195.3 1893.3 197.2L1920 199L1920 301L1893.3 301C1866.7 301 1813.3 301 1760 301C1706.7 301 1653.3 301 1600 301C1546.7 301 1493.3 301 1440 301C1386.7 301 1333.3 301 1280 301C1226.7 301 1173.3 301 1120 301C1066.7 301 1013.3 301 960 301C906.7 301 853.3 301 800 301C746.7 301 693.3 301 640 301C586.7 301 533.3 301 480 301C426.7 301 373.3 301 320 301C266.7 301 213.3 301 160 301C106.7 301 53.3 301 26.7 301L0 301Z" fill="#f2f6ff"></path><path d="M0 229L26.7 225.5C53.3 222 106.7 215 160 217.2C213.3 219.3 266.7 230.7 320 230.3C373.3 230 426.7 218 480 219.2C533.3 220.3 586.7 234.7 640 238.5C693.3 242.3 746.7 235.7 800 230.5C853.3 225.3 906.7 221.7 960 218.7C1013.3 215.7 1066.7 213.3 1120 217C1173.3 220.7 1226.7 230.3 1280 229.7C1333.3 229 1386.7 218 1440 215C1493.3 212 1546.7 217 1600 223C1653.3 229 1706.7 236 1760 236.2C1813.3 236.3 1866.7 229.7 1893.3 226.3L1920 223L1920 301L1893.3 301C1866.7 301 1813.3 301 1760 301C1706.7 301 1653.3 301 1600 301C1546.7 301 1493.3 301 1440 301C1386.7 301 1333.3 301 1280 301C1226.7 301 1173.3 301 1120 301C1066.7 301 1013.3 301 960 301C906.7 301 853.3 301 800 301C746.7 301 693.3 301 640 301C586.7 301 533.3 301 480 301C426.7 301 373.3 301 320 301C266.7 301 213.3 301 160 301C106.7 301 53.3 301 26.7 301L0 301Z" fill="#f4f7ff"></path><path d="M0 264L26.7 260.5C53.3 257 106.7 250 160 250.7C213.3 251.3 266.7 259.7 320 261.7C373.3 263.7 426.7 259.3 480 254.8C533.3 250.3 586.7 245.7 640 248.3C693.3 251 746.7 261 800 267.2C853.3 273.3 906.7 275.7 960 276.7C1013.3 277.7 1066.7 277.3 1120 272C1173.3 266.7 1226.7 256.3 1280 254.8C1333.3 253.3 1386.7 260.7 1440 266.2C1493.3 271.7 1546.7 275.3 1600 275.8C1653.3 276.3 1706.7 273.7 1760 272.8C1813.3 272 1866.7 273 1893.3 273.5L1920 274L1920 301L1893.3 301C1866.7 301 1813.3 301 1760 301C1706.7 301 1653.3 301 1600 301C1546.7 301 1493.3 301 1440 301C1386.7 301 1333.3 301 1280 301C1226.7 301 1173.3 301 1120 301C1066.7 301 1013.3 301 960 301C906.7 301 853.3 301 800 301C746.7 301 693.3 301 640 301C586.7 301 533.3 301 480 301C426.7 301 373.3 301 320 301C266.7 301 213.3 301 160 301C106.7 301 53.3 301 26.7 301L0 301Z" fill="#f6f8ff"></path></svg>