<svg id="visual" viewBox="0 0 1920 300" width="1920" height="300" xmlns="http://www.w3.org/2000/svg" xmlns:xlink="http://www.w3.org/1999/xlink" version="1.1"><rect x="0" y="0" width="1920" height="300" fill="#0c8136"></rect><path d="M0 183L80 191.7C160 200.3 320 217.7 480 214C640 210.3 800 185.7 960 179.3C1120 173 1280 185 1440 191.7C1600 198.3 1760 199.7 1840 200.3L1920 201L1920 301L1840 301C1760 301 1600 301 1440 301C1280 301 1120 301 960 301C800 301 640 301 480 301C320 301 160 301 80 301L0 301Z" fill="#d6d6ff"></path><path d="M0 256L80 251.2C160 246.3 320 236.7 480 234.5C640 232.3 800 237.7 960 243.7C1120 249.7 1280 256.3 1440 244.3C1600 232.3 1760 201.7 1840 186.3L1920 171L1920 301L1840 301C1760 301 1600 301 1440 301C1280 301 1120 301 960 301C800 301 640 301 480 301C320 301 160 301 80 301L0 301Z" fill="#e7e7ff"></path><path d="M0 273L80 268.7C160 264.3 320 255.7 480 243.3C640 231 800 215 960 219.2C1120 223.3 1280 247.7 1440 251.5C1600 255.3 1760 238.7 1840 230.3L1920 222L1920 301L1840 301C1760 301 1600 301 1440 301C1280 301 1120 301 960 301C800 301 640 301 480 301C320 301 160 301 80 301L0 301Z" fill="#f8f8ff"></path><path d="M0 265L80 266C160 267 320 269 480 266.2C640 263.3 800 255.7 960 251.7C1120 247.7 1280 247.3 1440 250C1600 252.7 1760 258.3 1840 261.2L1920 264L1920 301L1840 301C1760 301 1600 301 1440 301C1280 301 1120 301 960 301C800 301 640 301 480 301C320 301 160 301 80 301L0 301Z" fill="#f9f9ff"></path><path d="M0 276L80 277.3C160 278.7 320 281.3 480 281.8C640 282.3 800 280.7 960 276.7C1120 272.7 1280 266.3 1440 263.3C1600 260.3 1760 260.7 1840 260.8L1920 261L1920 301L1840 301C1760 301 1600 301 1440 301C1280 301 1120 301 960 301C800 301 640 301 480 301C320 301 160 301 80 301L0 301Z" fill="#fafaff"></path></svg>