<svg id="visual" viewBox="0 0 1920 300" width="1920" height="300" xmlns="http://www.w3.org/2000/svg" xmlns:xlink="http://www.w3.org/1999/xlink" version="1.1"><rect x="0" y="0" width="1920" height="300" fill="#0d8136"></rect><path d="M0 228L26.7 221.3C53.3 214.7 106.7 201.3 160 202C213.3 202.7 266.7 217.3 320 215.3C373.3 213.3 426.7 194.7 480 194C533.3 193.3 586.7 210.7 640 210C693.3 209.3 746.7 190.7 800 189.7C853.3 188.7 906.7 205.3 960 211.5C1013.3 217.7 1066.7 213.3 1120 208.5C1173.3 203.7 1226.7 198.3 1280 199C1333.3 199.7 1386.7 206.3 1440 209.5C1493.3 212.7 1546.7 212.3 1600 210.2C1653.3 208 1706.7 204 1760 197.2C1813.3 190.3 1866.7 180.7 1893.3 175.8L1920 171L1920 0L1893.3 0C1866.7 0 1813.3 0 1760 0C1706.7 0 1653.3 0 1600 0C1546.7 0 1493.3 0 1440 0C1386.7 0 1333.3 0 1280 0C1226.7 0 1173.3 0 1120 0C1066.7 0 1013.3 0 960 0C906.7 0 853.3 0 800 0C746.7 0 693.3 0 640 0C586.7 0 533.3 0 480 0C426.7 0 373.3 0 320 0C266.7 0 213.3 0 160 0C106.7 0 53.3 0 26.7 0L0 0Z" fill="#d0ddff"></path><path d="M0 153L26.7 153.8C53.3 154.7 106.7 156.3 160 154.8C213.3 153.3 266.7 148.7 320 152.5C373.3 156.3 426.7 168.7 480 177.3C533.3 186 586.7 191 640 184.5C693.3 178 746.7 160 800 152C853.3 144 906.7 146 960 146.8C1013.3 147.7 1066.7 147.3 1120 149.5C1173.3 151.7 1226.7 156.3 1280 162.3C1333.3 168.3 1386.7 175.7 1440 180.2C1493.3 184.7 1546.7 186.3 1600 181.2C1653.3 176 1706.7 164 1760 166C1813.3 168 1866.7 184 1893.3 192L1920 200L1920 0L1893.3 0C1866.7 0 1813.3 0 1760 0C1706.7 0 1653.3 0 1600 0C1546.7 0 1493.3 0 1440 0C1386.7 0 1333.3 0 1280 0C1226.7 0 1173.3 0 1120 0C1066.7 0 1013.3 0 960 0C906.7 0 853.3 0 800 0C746.7 0 693.3 0 640 0C586.7 0 533.3 0 480 0C426.7 0 373.3 0 320 0C266.7 0 213.3 0 160 0C106.7 0 53.3 0 26.7 0L0 0Z" fill="#dde7ff"></path><path d="M0 150L26.7 144.3C53.3 138.7 106.7 127.3 160 127.2C213.3 127 266.7 138 320 141.3C373.3 144.7 426.7 140.3 480 140.2C533.3 140 586.7 144 640 147.3C693.3 150.7 746.7 153.3 800 155.8C853.3 158.3 906.7 160.7 960 157C1013.3 153.3 1066.7 143.7 1120 135C1173.3 126.3 1226.7 118.7 1280 117.5C1333.3 116.3 1386.7 121.7 1440 124.7C1493.3 127.7 1546.7 128.3 1600 129.7C1653.3 131 1706.7 133 1760 130.8C1813.3 128.7 1866.7 122.3 1893.3 119.2L1920 116L1920 0L1893.3 0C1866.7 0 1813.3 0 1760 0C1706.7 0 1653.3 0 1600 0C1546.7 0 1493.3 0 1440 0C1386.7 0 1333.3 0 1280 0C1226.7 0 1173.3 0 1120 0C1066.7 0 1013.3 0 960 0C906.7 0 853.3 0 800 0C746.7 0 693.3 0 640 0C586.7 0 533.3 0 480 0C426.7 0 373.3 0 320 0C266.7 0 213.3 0 160 0C106.7 0 53.3 0 26.7 0L0 0Z" fill="#eaf0ff"></path><path d="M0 106L26.7 106.3C53.3 106.7 106.7 107.3 160 108.7C213.3 110 266.7 112 320 115.3C373.3 118.7 426.7 123.3 480 121C533.3 118.7 586.7 109.3 640 107.7C693.3 106 746.7 112 800 108.8C853.3 105.7 906.7 93.3 960 91.5C1013.3 89.7 1066.7 98.3 1120 105C1173.3 111.7 1226.7 116.3 1280 112.2C1333.3 108 1386.7 95 1440 91C1493.3 87 1546.7 92 1600 94.7C1653.3 97.3 1706.7 97.7 1760 99.3C1813.3 101 1866.7 104 1893.3 105.5L1920 107L1920 0L1893.3 0C1866.7 0 1813.3 0 1760 0C1706.7 0 1653.3 0 1600 0C1546.7 0 1493.3 0 1440 0C1386.7 0 1333.3 0 1280 0C1226.7 0 1173.3 0 1120 0C1066.7 0 1013.3 0 960 0C906.7 0 853.3 0 800 0C746.7 0 693.3 0 640 0C586.7 0 533.3 0 480 0C426.7 0 373.3 0 320 0C266.7 0 213.3 0 160 0C106.7 0 53.3 0 26.7 0L0 0Z" fill="#f2f6ff"></path><path d="M0 68L26.7 66.2C53.3 64.3 106.7 60.7 160 60.7C213.3 60.7 266.7 64.3 320 64.5C373.3 64.7 426.7 61.3 480 64.2C533.3 67 586.7 76 640 79.2C693.3 82.3 746.7 79.7 800 78.3C853.3 77 906.7 77 960 73.5C1013.3 70 1066.7 63 1120 63.5C1173.3 64 1226.7 72 1280 73.8C1333.3 75.7 1386.7 71.3 1440 68.7C1493.3 66 1546.7 65 1600 62.8C1653.3 60.7 1706.7 57.3 1760 55.5C1813.3 53.7 1866.7 53.3 1893.3 53.2L1920 53L1920 0L1893.3 0C1866.7 0 1813.3 0 1760 0C1706.7 0 1653.3 0 1600 0C1546.7 0 1493.3 0 1440 0C1386.7 0 1333.3 0 1280 0C1226.7 0 1173.3 0 1120 0C1066.7 0 1013.3 0 960 0C906.7 0 853.3 0 800 0C746.7 0 693.3 0 640 0C586.7 0 533.3 0 480 0C426.7 0 373.3 0 320 0C266.7 0 213.3 0 160 0C106.7 0 53.3 0 26.7 0L0 0Z" fill="#f4f7ff"></path><path d="M0 55L26.7 53.7C53.3 52.3 106.7 49.7 160 46.8C213.3 44 266.7 41 320 41.2C373.3 41.3 426.7 44.7 480 45C533.3 45.3 586.7 42.7 640 40.5C693.3 38.3 746.7 36.7 800 39.2C853.3 41.7 906.7 48.3 960 50.3C1013.3 52.3 1066.7 49.7 1120 48.8C1173.3 48 1226.7 49 1280 47C1333.3 45 1386.7 40 1440 36.3C1493.3 32.7 1546.7 30.3 1600 29C1653.3 27.7 1706.7 27.3 1760 29.7C1813.3 32 1866.7 37 1893.3 39.5L1920 42L1920 0L1893.3 0C1866.7 0 1813.3 0 1760 0C1706.7 0 1653.3 0 1600 0C1546.7 0 1493.3 0 1440 0C1386.7 0 1333.3 0 1280 0C1226.7 0 1173.3 0 1120 0C1066.7 0 1013.3 0 960 0C906.7 0 853.3 0 800 0C746.7 0 693.3 0 640 0C586.7 0 533.3 0 480 0C426.7 0 373.3 0 320 0C266.7 0 213.3 0 160 0C106.7 0 53.3 0 26.7 0L0 0Z" fill="#f6f8ff"></path></svg>