<svg id="visual" viewBox="0 0 1920 400" width="1920" height="400" xmlns="http://www.w3.org/2000/svg" xmlns:xlink="http://www.w3.org/1999/xlink" version="1.1"><path d="M0 33L22.8 33C45.7 33 91.3 33 137 31.7C182.7 30.3 228.3 27.7 274 23.7C319.7 19.7 365.3 14.3 411.2 15C457 15.7 503 22.3 548.8 25.7C594.7 29 640.3 29 686 29C731.7 29 777.3 29 823 31C868.7 33 914.3 37 960 33.7C1005.7 30.3 1051.3 19.7 1097 15C1142.7 10.3 1188.3 11.7 1234 15C1279.7 18.3 1325.3 23.7 1371.2 30.3C1417 37 1463 45 1508.8 47.7C1554.7 50.3 1600.3 47.7 1646 41C1691.7 34.3 1737.3 23.7 1783 22.3C1828.7 21 1874.3 29 1897.2 33L1920 37L1920 0L1897.2 0C1874.3 0 1828.7 0 1783 0C1737.3 0 1691.7 0 1646 0C1600.3 0 1554.7 0 1508.8 0C1463 0 1417 0 1371.2 0C1325.3 0 1279.7 0 1234 0C1188.3 0 1142.7 0 1097 0C1051.3 0 1005.7 0 960 0C914.3 0 868.7 0 823 0C777.3 0 731.7 0 686 0C640.3 0 594.7 0 548.8 0C503 0 457 0 411.2 0C365.3 0 319.7 0 274 0C228.3 0 182.7 0 137 0C91.3 0 45.7 0 22.8 0L0 0Z" fill="#f6f8ff"></path><path d="M0 117L22.8 127.7C45.7 138.3 91.3 159.7 137 153.7C182.7 147.7 228.3 114.3 274 100.3C319.7 86.3 365.3 91.7 411.2 102.3C457 113 503 129 548.8 132.3C594.7 135.7 640.3 126.3 686 111.7C731.7 97 777.3 77 823 69C868.7 61 914.3 65 960 81C1005.7 97 1051.3 125 1097 139.7C1142.7 154.3 1188.3 155.7 1234 155.7C1279.7 155.7 1325.3 154.3 1371.2 142.3C1417 130.3 1463 107.7 1508.8 111.7C1554.7 115.7 1600.3 146.3 1646 151.7C1691.7 157 1737.3 137 1783 132.3C1828.7 127.7 1874.3 138.3 1897.2 143.7L1920 149L1920 35L1897.2 31C1874.3 27 1828.7 19 1783 20.3C1737.3 21.7 1691.7 32.3 1646 39C1600.3 45.7 1554.7 48.3 1508.8 45.7C1463 43 1417 35 1371.2 28.3C1325.3 21.7 1279.7 16.3 1234 13C1188.3 9.7 1142.7 8.3 1097 13C1051.3 17.7 1005.7 28.3 960 31.7C914.3 35 868.7 31 823 29C777.3 27 731.7 27 686 27C640.3 27 594.7 27 548.8 23.7C503 20.3 457 13.7 411.2 13C365.3 12.3 319.7 17.7 274 21.7C228.3 25.7 182.7 28.3 137 29.7C91.3 31 45.7 31 22.8 31L0 31Z" fill="#f3f6ff"></path><path d="M0 141L22.8 149C45.7 157 91.3 173 137 165.7C182.7 158.3 228.3 127.7 274 117C319.7 106.3 365.3 115.7 411.2 128.3C457 141 503 157 548.8 158.3C594.7 159.7 640.3 146.3 686 129C731.7 111.7 777.3 90.3 823 85.7C868.7 81 914.3 93 960 111C1005.7 129 1051.3 153 1097 165C1142.7 177 1188.3 177 1234 177C1279.7 177 1325.3 177 1371.2 166.3C1417 155.7 1463 134.3 1508.8 137.7C1554.7 141 1600.3 169 1646 175C1691.7 181 1737.3 165 1783 161.7C1828.7 158.3 1874.3 167.7 1897.2 172.3L1920 177L1920 147L1897.2 141.7C1874.3 136.3 1828.7 125.7 1783 130.3C1737.3 135 1691.7 155 1646 149.7C1600.3 144.3 1554.7 113.7 1508.8 109.7C1463 105.7 1417 128.3 1371.2 140.3C1325.3 152.3 1279.7 153.7 1234 153.7C1188.3 153.7 1142.7 152.3 1097 137.7C1051.3 123 1005.7 95 960 79C914.3 63 868.7 59 823 67C777.3 75 731.7 95 686 109.7C640.3 124.3 594.7 133.7 548.8 130.3C503 127 457 111 411.2 100.3C365.3 89.7 319.7 84.3 274 98.3C228.3 112.3 182.7 145.7 137 151.7C91.3 157.7 45.7 136.3 22.8 125.7L0 115Z" fill="#edf2ff"></path><path d="M0 177L22.8 183.7C45.7 190.3 91.3 203.7 137 192.3C182.7 181 228.3 145 274 133.7C319.7 122.3 365.3 135.7 411.2 152.3C457 169 503 189 548.8 187.7C594.7 186.3 640.3 163.7 686 144.3C731.7 125 777.3 109 823 107.7C868.7 106.3 914.3 119.7 960 136.3C1005.7 153 1051.3 173 1097 185C1142.7 197 1188.3 201 1234 201.7C1279.7 202.3 1325.3 199.7 1371.2 190.3C1417 181 1463 165 1508.8 170.3C1554.7 175.7 1600.3 202.3 1646 207C1691.7 211.7 1737.3 194.3 1783 186.3C1828.7 178.3 1874.3 179.7 1897.2 180.3L1920 181L1920 175L1897.2 170.3C1874.3 165.7 1828.7 156.3 1783 159.7C1737.3 163 1691.7 179 1646 173C1600.3 167 1554.7 139 1508.8 135.7C1463 132.3 1417 153.7 1371.2 164.3C1325.3 175 1279.7 175 1234 175C1188.3 175 1142.7 175 1097 163C1051.3 151 1005.7 127 960 109C914.3 91 868.7 79 823 83.7C777.3 88.3 731.7 109.7 686 127C640.3 144.3 594.7 157.7 548.8 156.3C503 155 457 139 411.2 126.3C365.3 113.7 319.7 104.3 274 115C228.3 125.7 182.7 156.3 137 163.7C91.3 171 45.7 155 22.8 147L0 139Z" fill="#dbe5ff"></path><path d="M0 181L22.8 191.7C45.7 202.3 91.3 223.7 137 218.3C182.7 213 228.3 181 274 171.7C319.7 162.3 365.3 175.7 411.2 187C457 198.3 503 207.7 548.8 207C594.7 206.3 640.3 195.7 686 178.3C731.7 161 777.3 137 823 129C868.7 121 914.3 129 960 148.3C1005.7 167.7 1051.3 198.3 1097 210.3C1142.7 222.3 1188.3 215.7 1234 214.3C1279.7 213 1325.3 217 1371.2 209C1417 201 1463 181 1508.8 185.7C1554.7 190.3 1600.3 219.7 1646 227.7C1691.7 235.7 1737.3 222.3 1783 217.7C1828.7 213 1874.3 217 1897.2 219L1920 221L1920 179L1897.2 178.3C1874.3 177.7 1828.7 176.3 1783 184.3C1737.3 192.3 1691.7 209.7 1646 205C1600.3 200.3 1554.7 173.7 1508.8 168.3C1463 163 1417 179 1371.2 188.3C1325.3 197.7 1279.7 200.3 1234 199.7C1188.3 199 1142.7 195 1097 183C1051.3 171 1005.7 151 960 134.3C914.3 117.7 868.7 104.3 823 105.7C777.3 107 731.7 123 686 142.3C640.3 161.7 594.7 184.3 548.8 185.7C503 187 457 167 411.2 150.3C365.3 133.7 319.7 120.3 274 131.7C228.3 143 182.7 179 137 190.3C91.3 201.7 45.7 188.3 22.8 181.7L0 175Z" fill="#d0ddff"></path><path d="M0 213L22.8 225C45.7 237 91.3 261 137 253C182.7 245 228.3 205 274 190.3C319.7 175.7 365.3 186.3 411.2 199.7C457 213 503 229 548.8 234.3C594.7 239.7 640.3 234.3 686 213.7C731.7 193 777.3 157 823 147.7C868.7 138.3 914.3 155.7 960 175C1005.7 194.3 1051.3 215.7 1097 229.7C1142.7 243.7 1188.3 250.3 1234 255C1279.7 259.7 1325.3 262.3 1371.2 250.3C1417 238.3 1463 211.7 1508.8 211.7C1554.7 211.7 1600.3 238.3 1646 249C1691.7 259.7 1737.3 254.3 1783 249C1828.7 243.7 1874.3 238.3 1897.2 235.7L1920 233L1920 219L1897.2 217C1874.3 215 1828.7 211 1783 215.7C1737.3 220.3 1691.7 233.7 1646 225.7C1600.3 217.7 1554.7 188.3 1508.8 183.7C1463 179 1417 199 1371.2 207C1325.3 215 1279.7 211 1234 212.3C1188.3 213.7 1142.7 220.3 1097 208.3C1051.3 196.3 1005.7 165.7 960 146.3C914.3 127 868.7 119 823 127C777.3 135 731.7 159 686 176.3C640.3 193.7 594.7 204.3 548.8 205C503 205.7 457 196.3 411.2 185C365.3 173.7 319.7 160.3 274 169.7C228.3 179 182.7 211 137 216.3C91.3 221.7 45.7 200.3 22.8 189.7L0 179Z" fill="#d0ddff"></path><path d="M0 257L22.8 262.3C45.7 267.7 91.3 278.3 137 267.7C182.7 257 228.3 225 274 216.3C319.7 207.7 365.3 222.3 411.2 237.7C457 253 503 269 548.8 268.3C594.7 267.7 640.3 250.3 686 232.3C731.7 214.3 777.3 195.7 823 191C868.7 186.3 914.3 195.7 960 208.3C1005.7 221 1051.3 237 1097 253C1142.7 269 1188.3 285 1234 287.7C1279.7 290.3 1325.3 279.7 1371.2 265C1417 250.3 1463 231.7 1508.8 235C1554.7 238.3 1600.3 263.7 1646 277C1691.7 290.3 1737.3 291.7 1783 286.3C1828.7 281 1874.3 269 1897.2 263L1920 257L1920 231L1897.2 233.7C1874.3 236.3 1828.7 241.7 1783 247C1737.3 252.3 1691.7 257.7 1646 247C1600.3 236.3 1554.7 209.7 1508.8 209.7C1463 209.7 1417 236.3 1371.2 248.3C1325.3 260.3 1279.7 257.7 1234 253C1188.3 248.3 1142.7 241.7 1097 227.7C1051.3 213.7 1005.7 192.3 960 173C914.3 153.7 868.7 136.3 823 145.7C777.3 155 731.7 191 686 211.7C640.3 232.3 594.7 237.7 548.8 232.3C503 227 457 211 411.2 197.7C365.3 184.3 319.7 173.7 274 188.3C228.3 203 182.7 243 137 251C91.3 259 45.7 235 22.8 223L0 211Z" fill="#dbe5ff"></path><path d="M0 345L22.8 343C45.7 341 91.3 337 137 325C182.7 313 228.3 293 274 289.7C319.7 286.3 365.3 299.7 411.2 316.3C457 333 503 353 548.8 345.7C594.7 338.3 640.3 303.7 686 295.7C731.7 287.7 777.3 306.3 823 321C868.7 335.7 914.3 346.3 960 349.7C1005.7 353 1051.3 349 1097 346.3C1142.7 343.7 1188.3 342.3 1234 331.7C1279.7 321 1325.3 301 1371.2 294.3C1417 287.7 1463 294.3 1508.8 304.3C1554.7 314.3 1600.3 327.7 1646 331.7C1691.7 335.7 1737.3 330.3 1783 319.7C1828.7 309 1874.3 293 1897.2 285L1920 277L1920 255L1897.2 261C1874.3 267 1828.7 279 1783 284.3C1737.3 289.7 1691.7 288.3 1646 275C1600.3 261.7 1554.7 236.3 1508.8 233C1463 229.7 1417 248.3 1371.2 263C1325.3 277.7 1279.7 288.3 1234 285.7C1188.3 283 1142.7 267 1097 251C1051.3 235 1005.7 219 960 206.3C914.3 193.7 868.7 184.3 823 189C777.3 193.7 731.7 212.3 686 230.3C640.3 248.3 594.7 265.7 548.8 266.3C503 267 457 251 411.2 235.7C365.3 220.3 319.7 205.7 274 214.3C228.3 223 182.7 255 137 265.7C91.3 276.3 45.7 265.7 22.8 260.3L0 255Z" fill="#edf2ff"></path><path d="M0 353L22.8 352.3C45.7 351.7 91.3 350.3 137 349C182.7 347.7 228.3 346.3 274 348.3C319.7 350.3 365.3 355.7 411.2 361C457 366.3 503 371.7 548.8 368.3C594.7 365 640.3 353 686 350.3C731.7 347.7 777.3 354.3 823 360.3C868.7 366.3 914.3 371.7 960 375.7C1005.7 379.7 1051.3 382.3 1097 385C1142.7 387.7 1188.3 390.3 1234 377C1279.7 363.7 1325.3 334.3 1371.2 321C1417 307.7 1463 310.3 1508.8 319C1554.7 327.7 1600.3 342.3 1646 350.3C1691.7 358.3 1737.3 359.7 1783 351C1828.7 342.3 1874.3 323.7 1897.2 314.3L1920 305L1920 275L1897.2 283C1874.3 291 1828.7 307 1783 317.7C1737.3 328.3 1691.7 333.7 1646 329.7C1600.3 325.7 1554.7 312.3 1508.8 302.3C1463 292.3 1417 285.7 1371.2 292.3C1325.3 299 1279.7 319 1234 329.7C1188.3 340.3 1142.7 341.7 1097 344.3C1051.3 347 1005.7 351 960 347.7C914.3 344.3 868.7 333.7 823 319C777.3 304.3 731.7 285.7 686 293.7C640.3 301.7 594.7 336.3 548.8 343.7C503 351 457 331 411.2 314.3C365.3 297.7 319.7 284.3 274 287.7C228.3 291 182.7 311 137 323C91.3 335 45.7 339 22.8 341L0 343Z" fill="#f3f6ff"></path><path d="M0 401L22.8 401C45.7 401 91.3 401 137 401C182.7 401 228.3 401 274 401C319.7 401 365.3 401 411.2 401C457 401 503 401 548.8 401C594.7 401 640.3 401 686 401C731.7 401 777.3 401 823 401C868.7 401 914.3 401 960 401C1005.7 401 1051.3 401 1097 401C1142.7 401 1188.3 401 1234 401C1279.7 401 1325.3 401 1371.2 401C1417 401 1463 401 1508.8 401C1554.7 401 1600.3 401 1646 401C1691.7 401 1737.3 401 1783 401C1828.7 401 1874.3 401 1897.2 401L1920 401L1920 303L1897.2 312.3C1874.3 321.7 1828.7 340.3 1783 349C1737.3 357.7 1691.7 356.3 1646 348.3C1600.3 340.3 1554.7 325.7 1508.8 317C1463 308.3 1417 305.7 1371.2 319C1325.3 332.3 1279.7 361.7 1234 375C1188.3 388.3 1142.7 385.7 1097 383C1051.3 380.3 1005.7 377.7 960 373.7C914.3 369.7 868.7 364.3 823 358.3C777.3 352.3 731.7 345.7 686 348.3C640.3 351 594.7 363 548.8 366.3C503 369.7 457 364.3 411.2 359C365.3 353.7 319.7 348.3 274 346.3C228.3 344.3 182.7 345.7 137 347C91.3 348.3 45.7 349.7 22.8 350.3L0 351Z" fill="#f6f8ff"></path></svg>