<svg id="visual" viewBox="0 0 1920 400" width="1920" height="400" xmlns="http://www.w3.org/2000/svg" xmlns:xlink="http://www.w3.org/1999/xlink" version="1.1"><path d="M0 33L22.8 36.3C45.7 39.7 91.3 46.3 137 47.7C182.7 49 228.3 45 274 39.7C319.7 34.3 365.3 27.7 411.2 23C457 18.3 503 15.7 548.8 13.7C594.7 11.7 640.3 10.3 686 15C731.7 19.7 777.3 30.3 823 37C868.7 43.7 914.3 46.3 960 41.7C1005.7 37 1051.3 25 1097 18.3C1142.7 11.7 1188.3 10.3 1234 15.7C1279.7 21 1325.3 33 1371.2 39C1417 45 1463 45 1508.8 48.3C1554.7 51.7 1600.3 58.3 1646 52.3C1691.7 46.3 1737.3 27.7 1783 18.3C1828.7 9 1874.3 9 1897.2 9L1920 9L1920 0L1897.2 0C1874.3 0 1828.7 0 1783 0C1737.3 0 1691.7 0 1646 0C1600.3 0 1554.7 0 1508.8 0C1463 0 1417 0 1371.2 0C1325.3 0 1279.7 0 1234 0C1188.3 0 1142.7 0 1097 0C1051.3 0 1005.7 0 960 0C914.3 0 868.7 0 823 0C777.3 0 731.7 0 686 0C640.3 0 594.7 0 548.8 0C503 0 457 0 411.2 0C365.3 0 319.7 0 274 0C228.3 0 182.7 0 137 0C91.3 0 45.7 0 22.8 0L0 0Z" fill="#f6f8ff"></path><path d="M0 37L22.8 47C45.7 57 91.3 77 137 84.3C182.7 91.7 228.3 86.3 274 77.7C319.7 69 365.3 57 411.2 51C457 45 503 45 548.8 43.7C594.7 42.3 640.3 39.7 686 42.3C731.7 45 777.3 53 823 58.3C868.7 63.7 914.3 66.3 960 65.7C1005.7 65 1051.3 61 1097 55.7C1142.7 50.3 1188.3 43.7 1234 45.7C1279.7 47.7 1325.3 58.3 1371.2 64.3C1417 70.3 1463 71.7 1508.8 73.7C1554.7 75.7 1600.3 78.3 1646 76.3C1691.7 74.3 1737.3 67.7 1783 59C1828.7 50.3 1874.3 39.7 1897.2 34.3L1920 29L1920 7L1897.2 7C1874.3 7 1828.7 7 1783 16.3C1737.3 25.7 1691.7 44.3 1646 50.3C1600.3 56.3 1554.7 49.7 1508.8 46.3C1463 43 1417 43 1371.2 37C1325.3 31 1279.7 19 1234 13.7C1188.3 8.3 1142.7 9.7 1097 16.3C1051.3 23 1005.7 35 960 39.7C914.3 44.3 868.7 41.7 823 35C777.3 28.3 731.7 17.7 686 13C640.3 8.3 594.7 9.7 548.8 11.7C503 13.7 457 16.3 411.2 21C365.3 25.7 319.7 32.3 274 37.7C228.3 43 182.7 47 137 45.7C91.3 44.3 45.7 37.7 22.8 34.3L0 31Z" fill="#f3f6ff"></path><path d="M0 141L22.8 147C45.7 153 91.3 165 137 167C182.7 169 228.3 161 274 151C319.7 141 365.3 129 411.2 119.7C457 110.3 503 103.7 548.8 106.3C594.7 109 640.3 121 686 132.3C731.7 143.7 777.3 154.3 823 159.7C868.7 165 914.3 165 960 155.7C1005.7 146.3 1051.3 127.7 1097 119.7C1142.7 111.7 1188.3 114.3 1234 112.3C1279.7 110.3 1325.3 103.7 1371.2 101C1417 98.3 1463 99.7 1508.8 111C1554.7 122.3 1600.3 143.7 1646 147.7C1691.7 151.7 1737.3 138.3 1783 138.3C1828.7 138.3 1874.3 151.7 1897.2 158.3L1920 165L1920 27L1897.2 32.3C1874.3 37.7 1828.7 48.3 1783 57C1737.3 65.7 1691.7 72.3 1646 74.3C1600.3 76.3 1554.7 73.7 1508.8 71.7C1463 69.7 1417 68.3 1371.2 62.3C1325.3 56.3 1279.7 45.7 1234 43.7C1188.3 41.7 1142.7 48.3 1097 53.7C1051.3 59 1005.7 63 960 63.7C914.3 64.3 868.7 61.7 823 56.3C777.3 51 731.7 43 686 40.3C640.3 37.7 594.7 40.3 548.8 41.7C503 43 457 43 411.2 49C365.3 55 319.7 67 274 75.7C228.3 84.3 182.7 89.7 137 82.3C91.3 75 45.7 55 22.8 45L0 35Z" fill="#edf2ff"></path><path d="M0 177L22.8 180.3C45.7 183.7 91.3 190.3 137 187C182.7 183.7 228.3 170.3 274 161.7C319.7 153 365.3 149 411.2 139.7C457 130.3 503 115.7 548.8 119C594.7 122.3 640.3 143.7 686 159C731.7 174.3 777.3 183.7 823 184.3C868.7 185 914.3 177 960 167C1005.7 157 1051.3 145 1097 137.7C1142.7 130.3 1188.3 127.7 1234 124.3C1279.7 121 1325.3 117 1371.2 118.3C1417 119.7 1463 126.3 1508.8 137C1554.7 147.7 1600.3 162.3 1646 163.7C1691.7 165 1737.3 153 1783 157C1828.7 161 1874.3 181 1897.2 191L1920 201L1920 163L1897.2 156.3C1874.3 149.7 1828.7 136.3 1783 136.3C1737.3 136.3 1691.7 149.7 1646 145.7C1600.3 141.7 1554.7 120.3 1508.8 109C1463 97.7 1417 96.3 1371.2 99C1325.3 101.7 1279.7 108.3 1234 110.3C1188.3 112.3 1142.7 109.7 1097 117.7C1051.3 125.7 1005.7 144.3 960 153.7C914.3 163 868.7 163 823 157.7C777.3 152.3 731.7 141.7 686 130.3C640.3 119 594.7 107 548.8 104.3C503 101.7 457 108.3 411.2 117.7C365.3 127 319.7 139 274 149C228.3 159 182.7 167 137 165C91.3 163 45.7 151 22.8 145L0 139Z" fill="#dbe5ff"></path><path d="M0 205L22.8 207C45.7 209 91.3 213 137 210.3C182.7 207.7 228.3 198.3 274 191C319.7 183.7 365.3 178.3 411.2 164.3C457 150.3 503 127.7 548.8 130.3C594.7 133 640.3 161 686 181C731.7 201 777.3 213 823 215.7C868.7 218.3 914.3 211.7 960 199.7C1005.7 187.7 1051.3 170.3 1097 158.3C1142.7 146.3 1188.3 139.7 1234 136.3C1279.7 133 1325.3 133 1371.2 137C1417 141 1463 149 1508.8 160.3C1554.7 171.7 1600.3 186.3 1646 190.3C1691.7 194.3 1737.3 187.7 1783 193C1828.7 198.3 1874.3 215.7 1897.2 224.3L1920 233L1920 199L1897.2 189C1874.3 179 1828.7 159 1783 155C1737.3 151 1691.7 163 1646 161.7C1600.3 160.3 1554.7 145.7 1508.8 135C1463 124.3 1417 117.7 1371.2 116.3C1325.3 115 1279.7 119 1234 122.3C1188.3 125.7 1142.7 128.3 1097 135.7C1051.3 143 1005.7 155 960 165C914.3 175 868.7 183 823 182.3C777.3 181.7 731.7 172.3 686 157C640.3 141.7 594.7 120.3 548.8 117C503 113.7 457 128.3 411.2 137.7C365.3 147 319.7 151 274 159.7C228.3 168.3 182.7 181.7 137 185C91.3 188.3 45.7 181.7 22.8 178.3L0 175Z" fill="#d0ddff"></path><path d="M0 257L22.8 260.3C45.7 263.7 91.3 270.3 137 265.7C182.7 261 228.3 245 274 236.3C319.7 227.7 365.3 226.3 411.2 223C457 219.7 503 214.3 548.8 214.3C594.7 214.3 640.3 219.7 686 225.7C731.7 231.7 777.3 238.3 823 244.3C868.7 250.3 914.3 255.7 960 244.3C1005.7 233 1051.3 205 1097 197C1142.7 189 1188.3 201 1234 200.3C1279.7 199.7 1325.3 186.3 1371.2 180.3C1417 174.3 1463 175.7 1508.8 192.3C1554.7 209 1600.3 241 1646 244.3C1691.7 247.7 1737.3 222.3 1783 219.7C1828.7 217 1874.3 237 1897.2 247L1920 257L1920 231L1897.2 222.3C1874.3 213.7 1828.7 196.3 1783 191C1737.3 185.7 1691.7 192.3 1646 188.3C1600.3 184.3 1554.7 169.7 1508.8 158.3C1463 147 1417 139 1371.2 135C1325.3 131 1279.7 131 1234 134.3C1188.3 137.7 1142.7 144.3 1097 156.3C1051.3 168.3 1005.7 185.7 960 197.7C914.3 209.7 868.7 216.3 823 213.7C777.3 211 731.7 199 686 179C640.3 159 594.7 131 548.8 128.3C503 125.7 457 148.3 411.2 162.3C365.3 176.3 319.7 181.7 274 189C228.3 196.3 182.7 205.7 137 208.3C91.3 211 45.7 207 22.8 205L0 203Z" fill="#d0ddff"></path><path d="M0 273L22.8 284.3C45.7 295.7 91.3 318.3 137 333C182.7 347.7 228.3 354.3 274 353C319.7 351.7 365.3 342.3 411.2 335C457 327.7 503 322.3 548.8 315.7C594.7 309 640.3 301 686 306.3C731.7 311.7 777.3 330.3 823 339C868.7 347.7 914.3 346.3 960 346.3C1005.7 346.3 1051.3 347.7 1097 340.3C1142.7 333 1188.3 317 1234 319C1279.7 321 1325.3 341 1371.2 339.7C1417 338.3 1463 315.7 1508.8 307.7C1554.7 299.7 1600.3 306.3 1646 309.7C1691.7 313 1737.3 313 1783 311.7C1828.7 310.3 1874.3 307.7 1897.2 306.3L1920 305L1920 255L1897.2 245C1874.3 235 1828.7 215 1783 217.7C1737.3 220.3 1691.7 245.7 1646 242.3C1600.3 239 1554.7 207 1508.8 190.3C1463 173.7 1417 172.3 1371.2 178.3C1325.3 184.3 1279.7 197.7 1234 198.3C1188.3 199 1142.7 187 1097 195C1051.3 203 1005.7 231 960 242.3C914.3 253.7 868.7 248.3 823 242.3C777.3 236.3 731.7 229.7 686 223.7C640.3 217.7 594.7 212.3 548.8 212.3C503 212.3 457 217.7 411.2 221C365.3 224.3 319.7 225.7 274 234.3C228.3 243 182.7 259 137 263.7C91.3 268.3 45.7 261.7 22.8 258.3L0 255Z" fill="#dbe5ff"></path><path d="M0 301L22.8 309.7C45.7 318.3 91.3 335.7 137 346.3C182.7 357 228.3 361 274 359.7C319.7 358.3 365.3 351.7 411.2 347C457 342.3 503 339.7 548.8 333.7C594.7 327.7 640.3 318.3 686 324.3C731.7 330.3 777.3 351.7 823 360.3C868.7 369 914.3 365 960 365C1005.7 365 1051.3 369 1097 362.3C1142.7 355.7 1188.3 338.3 1234 337C1279.7 335.7 1325.3 350.3 1371.2 349C1417 347.7 1463 330.3 1508.8 324.3C1554.7 318.3 1600.3 323.7 1646 325.7C1691.7 327.7 1737.3 326.3 1783 325.7C1828.7 325 1874.3 325 1897.2 325L1920 325L1920 303L1897.2 304.3C1874.3 305.7 1828.7 308.3 1783 309.7C1737.3 311 1691.7 311 1646 307.7C1600.3 304.3 1554.7 297.7 1508.8 305.7C1463 313.7 1417 336.3 1371.2 337.7C1325.3 339 1279.7 319 1234 317C1188.3 315 1142.7 331 1097 338.3C1051.3 345.7 1005.7 344.3 960 344.3C914.3 344.3 868.7 345.7 823 337C777.3 328.3 731.7 309.7 686 304.3C640.3 299 594.7 307 548.8 313.7C503 320.3 457 325.7 411.2 333C365.3 340.3 319.7 349.7 274 351C228.3 352.3 182.7 345.7 137 331C91.3 316.3 45.7 293.7 22.8 282.3L0 271Z" fill="#edf2ff"></path><path d="M0 333L22.8 341.7C45.7 350.3 91.3 367.7 137 374.3C182.7 381 228.3 377 274 375C319.7 373 365.3 373 411.2 368.3C457 363.7 503 354.3 548.8 349.7C594.7 345 640.3 345 686 351C731.7 357 777.3 369 823 374.3C868.7 379.7 914.3 378.3 960 379.7C1005.7 381 1051.3 385 1097 378.3C1142.7 371.7 1188.3 354.3 1234 351.7C1279.7 349 1325.3 361 1371.2 363.7C1417 366.3 1463 359.7 1508.8 353C1554.7 346.3 1600.3 339.7 1646 335.7C1691.7 331.7 1737.3 330.3 1783 331C1828.7 331.7 1874.3 334.3 1897.2 335.7L1920 337L1920 323L1897.2 323C1874.3 323 1828.7 323 1783 323.7C1737.3 324.3 1691.7 325.7 1646 323.7C1600.3 321.7 1554.7 316.3 1508.8 322.3C1463 328.3 1417 345.7 1371.2 347C1325.3 348.3 1279.7 333.7 1234 335C1188.3 336.3 1142.7 353.7 1097 360.3C1051.3 367 1005.7 363 960 363C914.3 363 868.7 367 823 358.3C777.3 349.7 731.7 328.3 686 322.3C640.3 316.3 594.7 325.7 548.8 331.7C503 337.7 457 340.3 411.2 345C365.3 349.7 319.7 356.3 274 357.7C228.3 359 182.7 355 137 344.3C91.3 333.7 45.7 316.3 22.8 307.7L0 299Z" fill="#f3f6ff"></path><path d="M0 401L22.8 401C45.7 401 91.3 401 137 401C182.7 401 228.3 401 274 401C319.7 401 365.3 401 411.2 401C457 401 503 401 548.8 401C594.7 401 640.3 401 686 401C731.7 401 777.3 401 823 401C868.7 401 914.3 401 960 401C1005.7 401 1051.3 401 1097 401C1142.7 401 1188.3 401 1234 401C1279.7 401 1325.3 401 1371.2 401C1417 401 1463 401 1508.8 401C1554.7 401 1600.3 401 1646 401C1691.7 401 1737.3 401 1783 401C1828.7 401 1874.3 401 1897.2 401L1920 401L1920 335L1897.2 333.7C1874.3 332.3 1828.7 329.7 1783 329C1737.3 328.3 1691.7 329.7 1646 333.7C1600.3 337.7 1554.7 344.3 1508.8 351C1463 357.7 1417 364.3 1371.2 361.7C1325.3 359 1279.7 347 1234 349.7C1188.3 352.3 1142.7 369.7 1097 376.3C1051.3 383 1005.7 379 960 377.7C914.3 376.3 868.7 377.7 823 372.3C777.3 367 731.7 355 686 349C640.3 343 594.7 343 548.8 347.7C503 352.3 457 361.7 411.2 366.3C365.3 371 319.7 371 274 373C228.3 375 182.7 379 137 372.3C91.3 365.7 45.7 348.3 22.8 339.7L0 331Z" fill="#f6f8ff"></path></svg>