<svg id="visual" viewBox="0 0 1920 300" width="1920" height="300" xmlns="http://www.w3.org/2000/svg" xmlns:xlink="http://www.w3.org/1999/xlink" version="1.1"><path d="M0 19L32 18.5C64 18 128 17 192 18C256 19 320 22 384 21.5C448 21 512 17 576 17C640 17 704 21 768 26C832 31 896 37 960 44.5C1024 52 1088 61 1152 63.5C1216 66 1280 62 1344 58C1408 54 1472 50 1536 41.5C1600 33 1664 20 1728 21C1792 22 1856 37 1888 44.5L1920 52L1920 0L1888 0C1856 0 1792 0 1728 0C1664 0 1600 0 1536 0C1472 0 1408 0 1344 0C1280 0 1216 0 1152 0C1088 0 1024 0 960 0C896 0 832 0 768 0C704 0 640 0 576 0C512 0 448 0 384 0C320 0 256 0 192 0C128 0 64 0 32 0L0 0Z" fill="#fafaff"></path><path d="M0 31L32 32.5C64 34 128 37 192 37C256 37 320 34 384 30C448 26 512 21 576 23.5C640 26 704 36 768 40.5C832 45 896 44 960 51C1024 58 1088 73 1152 80.5C1216 88 1280 88 1344 82C1408 76 1472 64 1536 53C1600 42 1664 32 1728 36.5C1792 41 1856 60 1888 69.5L1920 79L1920 50L1888 42.5C1856 35 1792 20 1728 19C1664 18 1600 31 1536 39.5C1472 48 1408 52 1344 56C1280 60 1216 64 1152 61.5C1088 59 1024 50 960 42.5C896 35 832 29 768 24C704 19 640 15 576 15C512 15 448 19 384 19.5C320 20 256 17 192 16C128 15 64 16 32 16.5L0 17Z" fill="#f9f9ff"></path><path d="M0 46L32 47.5C64 49 128 52 192 52C256 52 320 49 384 43.5C448 38 512 30 576 31.5C640 33 704 44 768 48C832 52 896 49 960 55C1024 61 1088 76 1152 84C1216 92 1280 93 1344 88C1408 83 1472 72 1536 63C1600 54 1664 47 1728 50C1792 53 1856 66 1888 72.5L1920 79L1920 77L1888 67.5C1856 58 1792 39 1728 34.5C1664 30 1600 40 1536 51C1472 62 1408 74 1344 80C1280 86 1216 86 1152 78.5C1088 71 1024 56 960 49C896 42 832 43 768 38.5C704 34 640 24 576 21.5C512 19 448 24 384 28C320 32 256 35 192 35C128 35 64 32 32 30.5L0 29Z" fill="#f8f8ff"></path><path d="M0 79L32 79C64 79 128 79 192 74C256 69 320 59 384 50.5C448 42 512 35 576 42C640 49 704 70 768 74.5C832 79 896 67 960 71.5C1024 76 1088 97 1152 109.5C1216 122 1280 126 1344 123C1408 120 1472 110 1536 99.5C1600 89 1664 78 1728 77C1792 76 1856 85 1888 89.5L1920 94L1920 77L1888 70.5C1856 64 1792 51 1728 48C1664 45 1600 52 1536 61C1472 70 1408 81 1344 86C1280 91 1216 90 1152 82C1088 74 1024 59 960 53C896 47 832 50 768 46C704 42 640 31 576 29.5C512 28 448 36 384 41.5C320 47 256 50 192 50C128 50 64 47 32 45.5L0 44Z" fill="#ececff"></path><path d="M0 106L32 102.5C64 99 128 92 192 87.5C256 83 320 81 384 75C448 69 512 59 576 64.5C640 70 704 91 768 93.5C832 96 896 80 960 82.5C1024 85 1088 106 1152 123.5C1216 141 1280 155 1344 157C1408 159 1472 149 1536 135C1600 121 1664 103 1728 101.5C1792 100 1856 115 1888 122.5L1920 130L1920 92L1888 87.5C1856 83 1792 74 1728 75C1664 76 1600 87 1536 97.5C1472 108 1408 118 1344 121C1280 124 1216 120 1152 107.5C1088 95 1024 74 960 69.5C896 65 832 77 768 72.5C704 68 640 47 576 40C512 33 448 40 384 48.5C320 57 256 67 192 72C128 77 64 77 32 77L0 77Z" fill="#dcdcff"></path><path d="M0 115L32 120.5C64 126 128 137 192 134C256 131 320 114 384 107C448 100 512 103 576 118C640 133 704 160 768 155C832 150 896 113 960 116C1024 119 1088 162 1152 183C1216 204 1280 203 1344 209C1408 215 1472 228 1536 210.5C1600 193 1664 145 1728 145C1792 145 1856 193 1888 217L1920 241L1920 128L1888 120.5C1856 113 1792 98 1728 99.5C1664 101 1600 119 1536 133C1472 147 1408 157 1344 155C1280 153 1216 139 1152 121.5C1088 104 1024 83 960 80.5C896 78 832 94 768 91.5C704 89 640 68 576 62.5C512 57 448 67 384 73C320 79 256 81 192 85.5C128 90 64 97 32 100.5L0 104Z" fill="#d6d6ff"></path><path d="M0 136L32 138C64 140 128 144 192 137.5C256 131 320 114 384 108.5C448 103 512 109 576 126.5C640 144 704 173 768 170C832 167 896 132 960 136C1024 140 1088 183 1152 201C1216 219 1280 212 1344 216C1408 220 1472 235 1536 220C1600 205 1664 160 1728 161.5C1792 163 1856 211 1888 235L1920 259L1920 239L1888 215C1856 191 1792 143 1728 143C1664 143 1600 191 1536 208.5C1472 226 1408 213 1344 207C1280 201 1216 202 1152 181C1088 160 1024 117 960 114C896 111 832 148 768 153C704 158 640 131 576 116C512 101 448 98 384 105C320 112 256 129 192 132C128 135 64 124 32 118.5L0 113Z" fill="#d6d6ff"></path><path d="M0 178L32 181C64 184 128 190 192 184.5C256 179 320 162 384 159C448 156 512 167 576 178C640 189 704 200 768 196.5C832 193 896 175 960 178.5C1024 182 1088 207 1152 217C1216 227 1280 222 1344 226.5C1408 231 1472 245 1536 229C1600 213 1664 167 1728 169C1792 171 1856 221 1888 246L1920 271L1920 257L1888 233C1856 209 1792 161 1728 159.5C1664 158 1600 203 1536 218C1472 233 1408 218 1344 214C1280 210 1216 217 1152 199C1088 181 1024 138 960 134C896 130 832 165 768 168C704 171 640 142 576 124.5C512 107 448 101 384 106.5C320 112 256 129 192 135.5C128 142 64 138 32 136L0 134Z" fill="#dcdcff"></path><path d="M0 184L32 190C64 196 128 208 192 204.5C256 201 320 182 384 178C448 174 512 185 576 194.5C640 204 704 212 768 208C832 204 896 188 960 193C1024 198 1088 224 1152 234C1216 244 1280 238 1344 242.5C1408 247 1472 262 1536 246.5C1600 231 1664 185 1728 185.5C1792 186 1856 233 1888 256.5L1920 280L1920 269L1888 244C1856 219 1792 169 1728 167C1664 165 1600 211 1536 227C1472 243 1408 229 1344 224.5C1280 220 1216 225 1152 215C1088 205 1024 180 960 176.5C896 173 832 191 768 194.5C704 198 640 187 576 176C512 165 448 154 384 157C320 160 256 177 192 182.5C128 188 64 182 32 179L0 176Z" fill="#ececff"></path><path d="M0 205L32 209.5C64 214 128 223 192 219C256 215 320 198 384 193C448 188 512 195 576 207C640 219 704 236 768 234C832 232 896 211 960 216C1024 221 1088 252 1152 260.5C1216 269 1280 255 1344 256C1408 257 1472 273 1536 259C1600 245 1664 201 1728 201C1792 201 1856 245 1888 267L1920 289L1920 278L1888 254.5C1856 231 1792 184 1728 183.5C1664 183 1600 229 1536 244.5C1472 260 1408 245 1344 240.5C1280 236 1216 242 1152 232C1088 222 1024 196 960 191C896 186 832 202 768 206C704 210 640 202 576 192.5C512 183 448 172 384 176C320 180 256 199 192 202.5C128 206 64 194 32 188L0 182Z" fill="#f8f8ff"></path><path d="M0 205L32 210C64 215 128 225 192 221.5C256 218 320 201 384 195.5C448 190 512 196 576 208.5C640 221 704 240 768 240C832 240 896 221 960 225.5C1024 230 1088 258 1152 267C1216 276 1280 266 1344 267.5C1408 269 1472 282 1536 267C1600 252 1664 209 1728 208C1792 207 1856 248 1888 268.5L1920 289L1920 287L1888 265C1856 243 1792 199 1728 199C1664 199 1600 243 1536 257C1472 271 1408 255 1344 254C1280 253 1216 267 1152 258.5C1088 250 1024 219 960 214C896 209 832 230 768 232C704 234 640 217 576 205C512 193 448 186 384 191C320 196 256 213 192 217C128 221 64 212 32 207.5L0 203Z" fill="#f9f9ff"></path><path d="M0 301L32 301C64 301 128 301 192 301C256 301 320 301 384 301C448 301 512 301 576 301C640 301 704 301 768 301C832 301 896 301 960 301C1024 301 1088 301 1152 301C1216 301 1280 301 1344 301C1408 301 1472 301 1536 301C1600 301 1664 301 1728 301C1792 301 1856 301 1888 301L1920 301L1920 287L1888 266.5C1856 246 1792 205 1728 206C1664 207 1600 250 1536 265C1472 280 1408 267 1344 265.5C1280 264 1216 274 1152 265C1088 256 1024 228 960 223.5C896 219 832 238 768 238C704 238 640 219 576 206.5C512 194 448 188 384 193.5C320 199 256 216 192 219.5C128 223 64 213 32 208L0 203Z" fill="#fafaff"></path></svg>