<svg id="visual" viewBox="0 0 1920 400" width="1920" height="400" xmlns="http://www.w3.org/2000/svg" xmlns:xlink="http://www.w3.org/1999/xlink" version="1.1"><path d="M0 73L22.8 63.7C45.7 54.3 91.3 35.7 137 33.7C182.7 31.7 228.3 46.3 274 45C319.7 43.7 365.3 26.3 411.2 23.7C457 21 503 33 548.8 35.7C594.7 38.3 640.3 31.7 686 31.7C731.7 31.7 777.3 38.3 823 42.3C868.7 46.3 914.3 47.7 960 44.3C1005.7 41 1051.3 33 1097 39.7C1142.7 46.3 1188.3 67.7 1234 77C1279.7 86.3 1325.3 83.7 1371.2 83C1417 82.3 1463 83.7 1508.8 78.3C1554.7 73 1600.3 61 1646 60.3C1691.7 59.7 1737.3 70.3 1783 70.3C1828.7 70.3 1874.3 59.7 1897.2 54.3L1920 49L1920 0L1897.2 0C1874.3 0 1828.7 0 1783 0C1737.3 0 1691.7 0 1646 0C1600.3 0 1554.7 0 1508.8 0C1463 0 1417 0 1371.2 0C1325.3 0 1279.7 0 1234 0C1188.3 0 1142.7 0 1097 0C1051.3 0 1005.7 0 960 0C914.3 0 868.7 0 823 0C777.3 0 731.7 0 686 0C640.3 0 594.7 0 548.8 0C503 0 457 0 411.2 0C365.3 0 319.7 0 274 0C228.3 0 182.7 0 137 0C91.3 0 45.7 0 22.8 0L0 0Z" fill="#0d8136"></path><path d="M0 109L22.8 95.7C45.7 82.3 91.3 55.7 137 52.3C182.7 49 228.3 69 274 71.7C319.7 74.3 365.3 59.7 411.2 56.3C457 53 503 61 548.8 61C594.7 61 640.3 53 686 58.3C731.7 63.7 777.3 82.3 823 83.7C868.7 85 914.3 69 960 62.3C1005.7 55.7 1051.3 58.3 1097 71.7C1142.7 85 1188.3 109 1234 120.3C1279.7 131.7 1325.3 130.3 1371.2 124.3C1417 118.3 1463 107.7 1508.8 99.7C1554.7 91.7 1600.3 86.3 1646 89C1691.7 91.7 1737.3 102.3 1783 103C1828.7 103.7 1874.3 94.3 1897.2 89.7L1920 85L1920 47L1897.2 52.3C1874.3 57.7 1828.7 68.3 1783 68.3C1737.3 68.3 1691.7 57.7 1646 58.3C1600.3 59 1554.7 71 1508.8 76.3C1463 81.7 1417 80.3 1371.2 81C1325.3 81.7 1279.7 84.3 1234 75C1188.3 65.7 1142.7 44.3 1097 37.7C1051.3 31 1005.7 39 960 42.3C914.3 45.7 868.7 44.3 823 40.3C777.3 36.3 731.7 29.7 686 29.7C640.3 29.7 594.7 36.3 548.8 33.7C503 31 457 19 411.2 21.7C365.3 24.3 319.7 41.7 274 43C228.3 44.3 182.7 29.7 137 31.7C91.3 33.7 45.7 52.3 22.8 61.7L0 71Z" fill="#076727"></path><path d="M0 121L22.8 106.3C45.7 91.7 91.3 62.3 137 60.3C182.7 58.3 228.3 83.7 274 88.3C319.7 93 365.3 77 411.2 72.3C457 67.7 503 74.3 548.8 76.3C594.7 78.3 640.3 75.7 686 81C731.7 86.3 777.3 99.7 823 100.3C868.7 101 914.3 89 960 81.7C1005.7 74.3 1051.3 71.7 1097 86.3C1142.7 101 1188.3 133 1234 145.7C1279.7 158.3 1325.3 151.7 1371.2 143.7C1417 135.7 1463 126.3 1508.8 119C1554.7 111.7 1600.3 106.3 1646 109C1691.7 111.7 1737.3 122.3 1783 122.3C1828.7 122.3 1874.3 111.7 1897.2 106.3L1920 101L1920 83L1897.2 87.7C1874.3 92.3 1828.7 101.7 1783 101C1737.3 100.3 1691.7 89.7 1646 87C1600.3 84.3 1554.7 89.7 1508.8 97.7C1463 105.7 1417 116.3 1371.2 122.3C1325.3 128.3 1279.7 129.7 1234 118.3C1188.3 107 1142.7 83 1097 69.7C1051.3 56.3 1005.7 53.7 960 60.3C914.3 67 868.7 83 823 81.7C777.3 80.3 731.7 61.7 686 56.3C640.3 51 594.7 59 548.8 59C503 59 457 51 411.2 54.3C365.3 57.7 319.7 72.3 274 69.7C228.3 67 182.7 47 137 50.3C91.3 53.7 45.7 80.3 22.8 93.7L0 107Z" fill="#024e18"></path><path d="M0 157L22.8 156.3C45.7 155.7 91.3 154.3 137 164.3C182.7 174.3 228.3 195.7 274 193C319.7 190.3 365.3 163.7 411.2 151.7C457 139.7 503 142.3 548.8 143.7C594.7 145 640.3 145 686 147.7C731.7 150.3 777.3 155.7 823 153.7C868.7 151.7 914.3 142.3 960 131C1005.7 119.7 1051.3 106.3 1097 123.7C1142.7 141 1188.3 189 1234 207C1279.7 225 1325.3 213 1371.2 197.7C1417 182.3 1463 163.7 1508.8 154.3C1554.7 145 1600.3 145 1646 155.7C1691.7 166.3 1737.3 187.7 1783 205.7C1828.7 223.7 1874.3 238.3 1897.2 245.7L1920 253L1920 99L1897.2 104.3C1874.3 109.7 1828.7 120.3 1783 120.3C1737.3 120.3 1691.7 109.7 1646 107C1600.3 104.3 1554.7 109.7 1508.8 117C1463 124.3 1417 133.7 1371.2 141.7C1325.3 149.7 1279.7 156.3 1234 143.7C1188.3 131 1142.7 99 1097 84.3C1051.3 69.7 1005.7 72.3 960 79.7C914.3 87 868.7 99 823 98.3C777.3 97.7 731.7 84.3 686 79C640.3 73.7 594.7 76.3 548.8 74.3C503 72.3 457 65.7 411.2 70.3C365.3 75 319.7 91 274 86.3C228.3 81.7 182.7 56.3 137 58.3C91.3 60.3 45.7 89.7 22.8 104.3L0 119Z" fill="#00370b"></path><path d="M0 189L22.8 187C45.7 185 91.3 181 137 186.3C182.7 191.7 228.3 206.3 274 207C319.7 207.7 365.3 194.3 411.2 185.7C457 177 503 173 548.8 173.7C594.7 174.3 640.3 179.7 686 186.3C731.7 193 777.3 201 823 198.3C868.7 195.7 914.3 182.3 960 170.3C1005.7 158.3 1051.3 147.7 1097 163C1142.7 178.3 1188.3 219.7 1234 231.7C1279.7 243.7 1325.3 226.3 1371.2 207.7C1417 189 1463 169 1508.8 161C1554.7 153 1600.3 157 1646 168.3C1691.7 179.7 1737.3 198.3 1783 217.7C1828.7 237 1874.3 257 1897.2 267L1920 277L1920 251L1897.2 243.7C1874.3 236.3 1828.7 221.7 1783 203.7C1737.3 185.7 1691.7 164.3 1646 153.7C1600.3 143 1554.7 143 1508.8 152.3C1463 161.7 1417 180.3 1371.2 195.7C1325.3 211 1279.7 223 1234 205C1188.3 187 1142.7 139 1097 121.7C1051.3 104.3 1005.7 117.7 960 129C914.3 140.3 868.7 149.7 823 151.7C777.3 153.7 731.7 148.3 686 145.7C640.3 143 594.7 143 548.8 141.7C503 140.3 457 137.7 411.2 149.7C365.3 161.7 319.7 188.3 274 191C228.3 193.7 182.7 172.3 137 162.3C91.3 152.3 45.7 153.7 22.8 154.3L0 155Z" fill="#002a00"></path><path d="M0 225L22.8 217.7C45.7 210.3 91.3 195.7 137 199C182.7 202.3 228.3 223.7 274 227.7C319.7 231.7 365.3 218.3 411.2 207C457 195.7 503 186.3 548.8 189.7C594.7 193 640.3 209 686 219C731.7 229 777.3 233 823 225C868.7 217 914.3 197 960 185C1005.7 173 1051.3 169 1097 185.7C1142.7 202.3 1188.3 239.7 1234 251C1279.7 262.3 1325.3 247.7 1371.2 231.7C1417 215.7 1463 198.3 1508.8 189.7C1554.7 181 1600.3 181 1646 190.3C1691.7 199.7 1737.3 218.3 1783 239C1828.7 259.7 1874.3 282.3 1897.2 293.7L1920 305L1920 275L1897.2 265C1874.3 255 1828.7 235 1783 215.7C1737.3 196.3 1691.7 177.7 1646 166.3C1600.3 155 1554.7 151 1508.8 159C1463 167 1417 187 1371.2 205.7C1325.3 224.3 1279.7 241.7 1234 229.7C1188.3 217.7 1142.7 176.3 1097 161C1051.3 145.7 1005.7 156.3 960 168.3C914.3 180.3 868.7 193.7 823 196.3C777.3 199 731.7 191 686 184.3C640.3 177.7 594.7 172.3 548.8 171.7C503 171 457 175 411.2 183.7C365.3 192.3 319.7 205.7 274 205C228.3 204.3 182.7 189.7 137 184.3C91.3 179 45.7 183 22.8 185L0 187Z" fill="#002a00"></path><path d="M0 233L22.8 233.7C45.7 234.3 91.3 235.7 137 243.7C182.7 251.7 228.3 266.3 274 262.3C319.7 258.3 365.3 235.7 411.2 219.7C457 203.7 503 194.3 548.8 198.3C594.7 202.3 640.3 219.7 686 233C731.7 246.3 777.3 255.7 823 251C868.7 246.3 914.3 227.7 960 217.7C1005.7 207.7 1051.3 206.3 1097 219C1142.7 231.7 1188.3 258.3 1234 270.3C1279.7 282.3 1325.3 279.7 1371.2 267.7C1417 255.7 1463 234.3 1508.8 226.3C1554.7 218.3 1600.3 223.7 1646 230.3C1691.7 237 1737.3 245 1783 258.3C1828.7 271.7 1874.3 290.3 1897.2 299.7L1920 309L1920 303L1897.2 291.7C1874.3 280.3 1828.7 257.7 1783 237C1737.3 216.3 1691.7 197.7 1646 188.3C1600.3 179 1554.7 179 1508.8 187.7C1463 196.3 1417 213.7 1371.2 229.7C1325.3 245.7 1279.7 260.3 1234 249C1188.3 237.7 1142.7 200.3 1097 183.7C1051.3 167 1005.7 171 960 183C914.3 195 868.7 215 823 223C777.3 231 731.7 227 686 217C640.3 207 594.7 191 548.8 187.7C503 184.3 457 193.7 411.2 205C365.3 216.3 319.7 229.7 274 225.7C228.3 221.7 182.7 200.3 137 197C91.3 193.7 45.7 208.3 22.8 215.7L0 223Z" fill="#00370b"></path><path d="M0 257L22.8 257.7C45.7 258.3 91.3 259.7 137 267.7C182.7 275.7 228.3 290.3 274 283C319.7 275.7 365.3 246.3 411.2 232.3C457 218.3 503 219.7 548.8 226.3C594.7 233 640.3 245 686 253C731.7 261 777.3 265 823 261.7C868.7 258.3 914.3 247.7 960 243C1005.7 238.3 1051.3 239.7 1097 248.3C1142.7 257 1188.3 273 1234 283C1279.7 293 1325.3 297 1371.2 287.7C1417 278.3 1463 255.7 1508.8 249.7C1554.7 243.7 1600.3 254.3 1646 259C1691.7 263.7 1737.3 262.3 1783 270.3C1828.7 278.3 1874.3 295.7 1897.2 304.3L1920 313L1920 307L1897.2 297.7C1874.3 288.3 1828.7 269.7 1783 256.3C1737.3 243 1691.7 235 1646 228.3C1600.3 221.7 1554.7 216.3 1508.8 224.3C1463 232.3 1417 253.7 1371.2 265.7C1325.3 277.7 1279.7 280.3 1234 268.3C1188.3 256.3 1142.7 229.7 1097 217C1051.3 204.3 1005.7 205.7 960 215.7C914.3 225.7 868.7 244.3 823 249C777.3 253.7 731.7 244.3 686 231C640.3 217.7 594.7 200.3 548.8 196.3C503 192.3 457 201.7 411.2 217.7C365.3 233.7 319.7 256.3 274 260.3C228.3 264.3 182.7 249.7 137 241.7C91.3 233.7 45.7 232.3 22.8 231.7L0 231Z" fill="#024e18"></path><path d="M0 353L22.8 359C45.7 365 91.3 377 137 382.3C182.7 387.7 228.3 386.3 274 383C319.7 379.7 365.3 374.3 411.2 375C457 375.7 503 382.3 548.8 379.7C594.7 377 640.3 365 686 366.3C731.7 367.7 777.3 382.3 823 379C868.7 375.7 914.3 354.3 960 350.3C1005.7 346.3 1051.3 359.7 1097 369C1142.7 378.3 1188.3 383.7 1234 387.7C1279.7 391.7 1325.3 394.3 1371.2 385.7C1417 377 1463 357 1508.8 349C1554.7 341 1600.3 345 1646 345C1691.7 345 1737.3 341 1783 341C1828.7 341 1874.3 345 1897.2 347L1920 349L1920 311L1897.2 302.3C1874.3 293.7 1828.7 276.3 1783 268.3C1737.3 260.3 1691.7 261.7 1646 257C1600.3 252.3 1554.7 241.7 1508.8 247.7C1463 253.7 1417 276.3 1371.2 285.7C1325.3 295 1279.7 291 1234 281C1188.3 271 1142.7 255 1097 246.3C1051.3 237.7 1005.7 236.3 960 241C914.3 245.7 868.7 256.3 823 259.7C777.3 263 731.7 259 686 251C640.3 243 594.7 231 548.8 224.3C503 217.7 457 216.3 411.2 230.3C365.3 244.3 319.7 273.7 274 281C228.3 288.3 182.7 273.7 137 265.7C91.3 257.7 45.7 256.3 22.8 255.7L0 255Z" fill="#076727"></path><path d="M0 401L22.8 401C45.7 401 91.3 401 137 401C182.7 401 228.3 401 274 401C319.7 401 365.3 401 411.2 401C457 401 503 401 548.8 401C594.7 401 640.3 401 686 401C731.7 401 777.3 401 823 401C868.7 401 914.3 401 960 401C1005.7 401 1051.3 401 1097 401C1142.7 401 1188.3 401 1234 401C1279.7 401 1325.3 401 1371.2 401C1417 401 1463 401 1508.8 401C1554.7 401 1600.3 401 1646 401C1691.7 401 1737.3 401 1783 401C1828.7 401 1874.3 401 1897.2 401L1920 401L1920 347L1897.2 345C1874.3 343 1828.7 339 1783 339C1737.3 339 1691.7 343 1646 343C1600.3 343 1554.7 339 1508.8 347C1463 355 1417 375 1371.2 383.7C1325.3 392.3 1279.7 389.7 1234 385.7C1188.3 381.7 1142.7 376.3 1097 367C1051.3 357.7 1005.7 344.3 960 348.3C914.3 352.3 868.7 373.7 823 377C777.3 380.3 731.7 365.7 686 364.3C640.3 363 594.7 375 548.8 377.7C503 380.3 457 373.7 411.2 373C365.3 372.3 319.7 377.7 274 381C228.3 384.3 182.7 385.7 137 380.3C91.3 375 45.7 363 22.8 357L0 351Z" fill="#0d8136"></path></svg>