<svg id="visual" viewBox="0 0 1062 120" width="1062" height="120" xmlns="http://www.w3.org/2000/svg" xmlns:xlink="http://www.w3.org/1999/xlink" version="1.1"><rect x="0" y="0" width="1062" height="120" fill="#0d8136"></rect><path d="M0 97L13.7 93C27.3 89 54.7 81 81.8 78.5C109 76 136 79 163.2 82.7C190.3 86.3 217.7 90.7 245 91.3C272.3 92 299.7 89 326.8 87.5C354 86 381 86 408.2 80.8C435.3 75.7 462.7 65.3 490 57.5C517.3 49.7 544.7 44.3 572 50C599.3 55.7 626.7 72.3 653.8 82C681 91.7 708 94.3 735.2 89.8C762.3 85.3 789.7 73.7 817 72.8C844.3 72 871.7 82 898.8 88.2C926 94.3 953 96.7 980.2 95.5C1007.3 94.3 1034.7 89.7 1048.3 87.3L1062 85L1062 121L1048.3 121C1034.7 121 1007.3 121 980.2 121C953 121 926 121 898.8 121C871.7 121 844.3 121 817 121C789.7 121 762.3 121 735.2 121C708 121 681 121 653.8 121C626.7 121 599.3 121 572 121C544.7 121 517.3 121 490 121C462.7 121 435.3 121 408.2 121C381 121 354 121 326.8 121C299.7 121 272.3 121 245 121C217.7 121 190.3 121 163.2 121C136 121 109 121 81.8 121C54.7 121 27.3 121 13.7 121L0 121Z" fill="#f8f8ff" stroke-linecap="round" stroke-linejoin="miter"></path></svg>