<svg id="visual" viewBox="0 0 1062 120" width="1062" height="120" xmlns="http://www.w3.org/2000/svg" xmlns:xlink="http://www.w3.org/1999/xlink" version="1.1"><path d="M0 24L17.7 23C35.3 22 70.7 20 106 18.3C141.3 16.7 176.7 15.3 212.2 15.7C247.7 16 283.3 18 318.8 19C354.3 20 389.7 20 425 18.8C460.3 17.7 495.7 15.3 531 14.2C566.3 13 601.7 13 637 13.7C672.3 14.3 707.7 15.7 743.2 17.8C778.7 20 814.3 23 849.8 24.2C885.3 25.3 920.7 24.7 956 23.3C991.3 22 1026.7 20 1044.3 19L1062 18L1062 0L1044.3 0C1026.7 0 991.3 0 956 0C920.7 0 885.3 0 849.8 0C814.3 0 778.7 0 743.2 0C707.7 0 672.3 0 637 0C601.7 0 566.3 0 531 0C495.7 0 460.3 0 425 0C389.7 0 354.3 0 318.8 0C283.3 0 247.7 0 212.2 0C176.7 0 141.3 0 106 0C70.7 0 35.3 0 17.7 0L0 0Z" fill="#184325"></path><path d="M0 35L17.7 33.7C35.3 32.3 70.7 29.7 106 28.7C141.3 27.7 176.7 28.3 212.2 29C247.7 29.7 283.3 30.3 318.8 31.5C354.3 32.7 389.7 34.3 425 33.7C460.3 33 495.7 30 531 27.8C566.3 25.7 601.7 24.3 637 24C672.3 23.7 707.7 24.3 743.2 27C778.7 29.7 814.3 34.3 849.8 36.3C885.3 38.3 920.7 37.7 956 35.5C991.3 33.3 1026.7 29.7 1044.3 27.8L1062 26L1062 16L1044.3 17C1026.7 18 991.3 20 956 21.3C920.7 22.7 885.3 23.3 849.8 22.2C814.3 21 778.7 18 743.2 15.8C707.7 13.7 672.3 12.3 637 11.7C601.7 11 566.3 11 531 12.2C495.7 13.3 460.3 15.7 425 16.8C389.7 18 354.3 18 318.8 17C283.3 16 247.7 14 212.2 13.7C176.7 13.3 141.3 14.7 106 16.3C70.7 18 35.3 20 17.7 21L0 22Z" fill="#18522a"></path><path d="M0 60L17.7 60C35.3 60 70.7 60 106 57.8C141.3 55.7 176.7 51.3 212.2 49.7C247.7 48 283.3 49 318.8 51C354.3 53 389.7 56 425 56.5C460.3 57 495.7 55 531 52.7C566.3 50.3 601.7 47.7 637 45.8C672.3 44 707.7 43 743.2 44.7C778.7 46.3 814.3 50.7 849.8 52.2C885.3 53.7 920.7 52.3 956 50.5C991.3 48.7 1026.7 46.3 1044.3 45.2L1062 44L1062 24L1044.3 25.8C1026.7 27.7 991.3 31.3 956 33.5C920.7 35.7 885.3 36.3 849.8 34.3C814.3 32.3 778.7 27.7 743.2 25C707.7 22.3 672.3 21.7 637 22C601.7 22.3 566.3 23.7 531 25.8C495.7 28 460.3 31 425 31.7C389.7 32.3 354.3 30.7 318.8 29.5C283.3 28.3 247.7 27.7 212.2 27C176.7 26.3 141.3 25.7 106 26.7C70.7 27.7 35.3 30.3 17.7 31.7L0 33Z" fill="#16612e"></path><path d="M0 81L17.7 81.5C35.3 82 70.7 83 106 83.7C141.3 84.3 176.7 84.7 212.2 84.7C247.7 84.7 283.3 84.3 318.8 83.2C354.3 82 389.7 80 425 79C460.3 78 495.7 78 531 82C566.3 86 601.7 94 637 96.8C672.3 99.7 707.7 97.3 743.2 93.3C778.7 89.3 814.3 83.7 849.8 80.3C885.3 77 920.7 76 956 76.3C991.3 76.7 1026.7 78.3 1044.3 79.2L1062 80L1062 42L1044.3 43.2C1026.7 44.3 991.3 46.7 956 48.5C920.7 50.3 885.3 51.7 849.8 50.2C814.3 48.7 778.7 44.3 743.2 42.7C707.7 41 672.3 42 637 43.8C601.7 45.7 566.3 48.3 531 50.7C495.7 53 460.3 55 425 54.5C389.7 54 354.3 51 318.8 49C283.3 47 247.7 46 212.2 47.7C176.7 49.3 141.3 53.7 106 55.8C70.7 58 35.3 58 17.7 58L0 58Z" fill="#137132"></path><path d="M0 121L17.7 121C35.3 121 70.7 121 106 121C141.3 121 176.7 121 212.2 121C247.7 121 283.3 121 318.8 121C354.3 121 389.7 121 425 121C460.3 121 495.7 121 531 121C566.3 121 601.7 121 637 121C672.3 121 707.7 121 743.2 121C778.7 121 814.3 121 849.8 121C885.3 121 920.7 121 956 121C991.3 121 1026.7 121 1044.3 121L1062 121L1062 78L1044.3 77.2C1026.7 76.3 991.3 74.7 956 74.3C920.7 74 885.3 75 849.8 78.3C814.3 81.7 778.7 87.3 743.2 91.3C707.7 95.3 672.3 97.7 637 94.8C601.7 92 566.3 84 531 80C495.7 76 460.3 76 425 77C389.7 78 354.3 80 318.8 81.2C283.3 82.3 247.7 82.7 212.2 82.7C176.7 82.7 141.3 82.3 106 81.7C70.7 81 35.3 80 17.7 79.5L0 79Z" fill="#0d8136"></path></svg>